<?xml version="1.0" encoding="utf-8"?>
<!-- Generator: Adobe Illustrator 26.1.0, SVG Export Plug-In . SVG Version: 6.00 Build 0)  -->
<svg version="1.1" id="Layer_1" xmlns="http://www.w3.org/2000/svg" xmlns:xlink="http://www.w3.org/1999/xlink" x="0px" y="0px"
	 viewBox="0 0 554.6 554.6" style="enable-background:new 0 0 554.6 554.6;" xml:space="preserve">
<style type="text/css">
	.st0{fill:#FFFFFF;}
</style>
<g>
	<path class="st0" d="M280.7,143.5c0.1,21.7-13.6,39.9-34,43.7c-13.9,2.7-25.1-3-34.1-13.6c-15.8-18.5-12.7-50.4,6.6-64.9
		c22.1-16.6,53.1-5,59.8,22.7C280,135.4,280.2,139.5,280.7,143.5z M277.5,142.8c-0.2-1.9-0.4-5.3-1.1-8.8
		c-5.1-26.1-36-37.9-56.2-21.2c-16.6,13.6-19.7,39.1-6.9,56.4c12.6,16.9,34.3,19.9,50.4,6.3C272.8,167.4,277.2,156.6,277.5,142.8z"
		/>
	<path class="st0" d="M365.3,165.9c-0.4,17.6-11.1,31-27.9,34.7c-9.4,2-17.7-1-24.5-7.2c-14.7-13.2-16.1-36.6-3.1-51
		c8-8.8,18-13,30.2-10c12.7,3.2,20.2,11.4,23.7,23.2C364.8,158.9,364.9,162.5,365.3,165.9z M362.4,166.2c-0.4-2.9-0.6-5.7-1.3-8.4
		c-2.9-10.6-9.6-18.2-20.6-21.6c-10.7-3.1-19.8,0.2-27.3,7.6c-11.9,11.7-11.8,33.5,0.2,45.2c6.2,6.1,13.8,9.7,22.9,8
		C351.7,194.2,362.1,181.8,362.4,166.2z"/>
	<path class="st0" d="M175.4,418.1c-1.8,1.1-4,3.7-5.2,3.2c-1.9-0.6-3.9-3-4.7-5.1c-0.3-0.7,2.6-3.7,4.2-4
		C172.7,411.7,174.5,413.6,175.4,418.1z"/>
	<path class="st0" d="M144.2,253c0-4.1,3-7.2,6.8-7.3c3.6-0.1,7,3.6,7,7.3c0,3.8-3.4,7.2-7,7.3C147.2,260.5,144.4,257.2,144.2,253z
		 M151.1,258.1c1.7-2.3,3.7-3.9,3.4-5c-0.3-1.4-2.2-2.7-3.7-4c-1.2,1.3-3.2,2.7-3.4,4.1C147.2,254.5,149.4,256,151.1,258.1z"/>
	<path class="st0" d="M324,148.6c-3.6,0-6.6,3.3-6.6,7c0,3.9,3.1,7.1,6.4,7.1c3.7-0.1,7-3.7,6.9-7.3
		C330.8,151.6,327.6,148.5,324,148.6z M324,161.1c-2.7,0-5-2.6-5-5.6c0-2.9,2.3-5.4,5.1-5.4c2.8-0.1,5.3,2.3,5.3,5.3
		C329.4,158.3,326.8,161,324,161.1z"/>
	<path class="st0" d="M340.4,165.9c-4.3-0.1-8.9,4.8-8.9,9.3c-0.1,4.7,4,9.4,7.9,9.6c5.4,0.1,9.1-3.6,9.2-9.1
		C348.8,170.4,345,166.1,340.4,165.9z M339.9,181.9c-3.2,0-6.1-3.1-6.1-6.7s2.9-6.6,6.2-6.6c3.4-0.1,6.4,2.9,6.4,6.4
		C346.4,178.5,343.3,181.8,339.9,181.9z"/>
	<path class="st0" d="M323.9,179.9c1.9,2.3,4,3.9,3.8,4.9c-0.3,1.6-2.2,2.9-3.4,4.2c-1.2-1.3-3.2-2.6-3.6-4
		C320.3,183.8,322.1,182.2,323.9,179.9z"/>
	<path class="st0" d="M337.9,145.4c1.9,2.3,4,3.9,3.8,4.9c-0.3,1.6-2.2,2.9-3.4,4.2c-1.2-1.3-3.2-2.6-3.6-4
		C334.3,149.4,336.1,147.9,337.9,145.4z"/>
	<path class="st0" d="M347.2,154.1c1.9,2.3,4,3.9,3.8,4.9c-0.3,1.6-2.2,2.9-3.4,4.2c-1.2-1.3-3.2-2.6-3.6-4
		C343.7,158.1,345.5,156.4,347.2,154.1z"/>
	<path class="st0" d="M314.6,167.8c1.8,2.7,3.7,4.2,3.7,5.7c0,1.3-2.1,2.7-3.4,3.9c-1.2-1.3-3.2-2.7-3.4-4.2
		C311.3,172,313,170.3,314.6,167.8z"/>
	<g>
		<path class="st0" d="M465.7,316.4c-15.9-23.2-38.1-35.7-65.4-36.5c-5.2,0.2-8.8,0.2-12.2,0.7c-3.7,0.4-7.2,1.3-10.8,2.2
			c-37.1,9.8-61.5,45.4-63.1,80.9c-1.2,26,6.4,49.2,24.2,68.1c1.7,1.8,3.3,3.4,5.1,5.1c3.2,3,6.7,5.8,10.2,8.2
			c3.7,2.6,7.6,4.8,11.6,6.7c1.7,0.8,3.3,1.6,5,2.2c26.3,10.3,56.2,5.9,80-14.9C485.8,408.1,492.3,354.9,465.7,316.4z M447.8,435.9
			c-30.9,27-72.5,25.1-101.7-2c-20.3-18.9-29.2-42.8-28-69.8c1.6-33.9,24.8-67.8,60.1-77c3.4-0.9,6.8-1.7,10.2-2.1
			c3.3-0.4,6.7-0.3,11.7-0.7c25.9,0.7,47.1,12.7,62.4,34.8C487.7,355.7,481.7,406.3,447.8,435.9z"/>
		<path class="st0" d="M454.1,325.3c-0.9-0.9-1.9-0.8-3,0.3c-0.8,0.8-1.6,1.7-2.6,2.3c-0.3,0.2-0.9,0.3-1.2,0.2
			c-5-2.2-10-4.4-14.9-6.8c-9.4-4.8-18.9-9.7-28.3-14.6c-1.1-0.6-2.7-1-3.3-1.9c-0.6-0.8,0-2.2,0.1-3.6c0.1-1.4-0.4-2.1-1.6-2.2
			c-1.2-0.1-1.9,0.6-2.1,1.9c-1.4,10.2,1.3,19.2,7.2,27.3c2,2.9,4.4,5.6,6.7,8.3c0,0-0.1,0.1-0.2,0.1c-1.2,0-2.7-0.1-3.9-0.1
			c-7.1-0.3-14.2,0.1-20.9,2.7c-5.8,2.1-10.7,5.4-13.9,10.9c-4.1,6.9-4.3,14.2-1.8,21.7c2.3,6.9,6.6,12.7,11.2,18.1
			c0.3,0.3,0.6,0.7,1,1.2h-1.8c-7.1,0.1-14.2,0.8-20.9,3.2c-6.6,2.2-11.3,7-15.8,12c-1,1.1-1.9,2.6-2.9,3.8
			c-0.6,0.9-0.3,1.8,0.6,2.3s1.7,0.4,2.3-0.3c0.3-0.4,0.7-0.9,1-1.3c1.4-1.7,2.9-3.4,4.3-5.1c0.6,0.3,1,0.6,1.3,0.8
			c8.2,3.9,16.3,7.7,24.6,11.4c7.2,3.6,14.4,7,21.7,10.7c0.8,0.3,1,0.8,0.7,1.6c-1,2.3-2,4.7-3.2,7c-0.4,1-0.7,1.9,0.4,2.7
			c0.9,0.7,1.9,0.3,2.8-0.7c2.6-3.6,3.9-7.6,4.3-11.8c1-10-1.8-19.1-7.2-27.6c-1-1.6-2.1-3.1-3.3-4.7c1.7,0,3.2,0.1,4.6,0.1
			c14.3,0,25.8-5.3,33.5-18.1c6-10.2,5.3-20.7-2.3-29.7c-1.9-2.2-4.1-4.3-6.2-6.6c0.7,0,1.1,0,1.6-0.1c4-0.4,7.9-0.7,11.7-1.4
			c7.8-1.4,14-5.6,19.3-11.3C454.8,327.3,454.9,326.2,454.1,325.3z M398.7,419c0.2,1.9,0.3,4,0.4,5.9c-15.6-7.2-30.8-14.6-46.4-21.8
			c2.1-1.9,4.2-3.6,6.7-4.6c0.6-0.2,1.4,0.1,2.1,0.4c6.2,3.1,12.6,6,18.8,9.2c5.8,3,11.4,6,17.1,9.1
			C398.1,417.6,398.6,418.4,398.7,419z M397.3,412.9c-10.7-5.4-21-10.8-31.7-16.2c0.6-0.1,0.9-0.3,1.3-0.3c6.2-1.2,12.7-1.6,19-1.2
			c0.4,0,0.9,0.2,1.2,0.4C391.6,400.5,395.2,406.1,397.3,412.9z M405.8,391c-2.9,0.2-5.6,0.6-8.4,0.7c-2.8,0.1-5.4-0.1-8.1-0.2
			c-0.4,0-0.9-0.2-1.2-0.4c-4.1-4.3-8-8.8-10.9-14c-0.1-0.1-0.1-0.3-0.3-0.8c9.9,4.9,19.5,9.6,29.1,14.2
			C405.8,390.6,405.8,390.8,405.8,391z M411.8,388.8c-0.3,0.1-0.9,0-1.2-0.2c-11.7-5.8-23.5-11.4-35.2-17.2c-0.6-0.2-1-0.9-1.2-1.4
			c-0.8-2.3-1.2-4.9-1.2-7.9c15.3,7.7,30.5,15.1,45.6,22.8c0,0.2,0,0.3,0.1,0.6C416.2,386.5,414,387.7,411.8,388.8z M421.9,381.8
			c-0.2,0.2-0.9,0.1-1.2,0c-3-1.4-5.8-3-8.8-4.4c-12.2-6.1-24.6-12.2-36.8-18.3c-1.3-0.7-1.8-1.2-1.2-2.8c0.6-1.2,0.9-2.6,1.4-3.8
			c16.9,8.1,33.7,16.1,50.8,24.3C424.3,378.8,423.2,380.4,421.9,381.8z M429.1,370.3l-1,2.8c-0.1,0.3-0.3,0.6-0.4,0.8
			c-16.7-8.1-33.3-16-50.1-24.1c1.8-2.2,4-3.9,6.3-5.2c0.2-0.1,0.8,0.1,1.1,0.2c5.6,2.7,11.1,5.1,16.6,8c8.8,4.6,17.6,9.3,26.1,14
			C429.9,367.8,429.9,367.8,429.1,370.3z M428,355.5c0.2,0.1,0.4,0.3,0.6,0.6c1,2.3,1.7,4.9,1.6,7.3c-13.7-6.9-27.3-14-41.2-21
			c3.9-1.3,7.7-1.8,11.3-2c0.3,0,0.8,0.2,1.1,0.4c7.1,4,14.5,8,21.6,11.9C424.7,353.6,426.3,354.5,428,355.5z M423.2,348.3
			c-5.1-2.7-9.9-5.1-14.8-7.6c0-0.1,0.1-0.2,0.1-0.3c2.2,0.1,4.6,0.2,6.8,0.4c0.2,0,0.4,0.1,0.6,0.3
			C418.2,343.4,420.6,345.8,423.2,348.3z M433.6,336c-5.1,1.1-10.2,1.4-15.5,1.2c-0.4,0-1-0.1-1.2-0.4c-4.8-4.8-9.4-9.8-12.6-15.9
			c-0.1-0.2-0.2-0.6-0.3-0.9c0.1-0.1,0.1-0.1,0.2-0.2c10.2,5.2,20.3,10.4,30.8,15.7C434.5,335.8,434,335.9,433.6,336z M440.6,333.5
			c-0.2,0.1-0.8-0.1-1.1-0.2l-18.8-9.2c-6-3-11.9-6-17.9-9c-0.9-0.4-1.3-1-1.4-1.9c-0.2-1.1-0.4-2.2-0.7-3.6
			c0.1-0.1,0.2-0.2,0.3-0.3c14.4,7.3,28.9,14.7,43.3,22.1C443.2,332.2,442,332.8,440.6,333.5z"/>
	</g>
	<path class="st0" d="M306.7,259.7c-7.9,1.1-15.9,1.9-23.2,4.7c-10.6,3.9-17.6,11.9-19.5,23.5c-0.8,4.7-1.2,5.9-5.8,9.1
		c-0.1-0.1-0.2-0.2-0.2-0.3c-1-13.2,3-25.3,7.3-37.5c0.2-0.7,2.1-1.3,3-1.1c5.6,1.7,10.6,0.2,15-3.1c13.7-10.1,19.1-24.7,21.9-40.6
		c0.6-3.4-1.3-4.8-4.7-4.8c-24.1-0.3-43.7,25.8-37,44.4c0.2,0.7,0.3,1.6,0.1,2.2c-1.9,5.3-4,10.7-5.9,16c-0.4,0-1,0.1-1.4,0.1
		c-0.8-4.9-2.9-10-2.2-14.7c2.1-16.1-9.8-32.5-25.9-33.9c-7.9-0.7-9,0.3-8.6,8c0.1,2.6,0.4,5,1.1,7.3c3.9,12.6,12,21.5,24.7,24.8
		c4.6,1.2,6.7,2.9,8.2,6.8c3.2,8.4,1.6,17,1.4,25.6c-0.1,7.3,0,14.7,0,22.1v0.1c0,1.2,0,2.6,0,3.9v0.1c0,1.7,0,3.3,0,5
		c-1-0.2-1.8-0.3-2.6-0.6c-0.9-0.2-1.8-0.6-2.8-0.8c-1.6-0.3-3.1-0.7-4.7-0.8c-0.1,0-0.2,0-0.3,0c-5-0.7-9.9-0.7-14.4,0.3
		c-6,1.2-11.4,3.9-16.3,8.6c-1.2,1.2-2.6,2.6-3.7,4c-3.1,3.9-5.7,8.3-7.3,13c-0.3,0.8-0.6,1.4-0.9,2c-0.8,1.3-1.7,2.2-2.8,2.8
		c-1.2,0.7-2.8,0.8-4.8,0.7c-6.1-0.4-12.2-0.1-18.5-0.1c-12.2,0-12.6,0.3-11.4,12.7c0.2,3.4,1.6,4.6,5,4.4
		c16.1-0.2,32.5-0.2,48.6-0.2h4.8c-1.1,1.7-1.7,2.8-2.3,3.8c-6.8,8.6-15.6,14.1-25.3,18.8c-10.6,5.1-21.7-1.3-32,2.8
		c-0.2,0.1-0.6-0.2-0.8-0.3c-3.7-1.4-7.2-2.9-10.7-4.7c-25.2-13.6-39.2-41.6-34.5-70.2c4.2-25.9,17-45,43.6-53.2
		c0.8,1.4,1.3,2.3,1.7,3.4c3.6,7.9,7,15.7,10.6,23.6c1.6,3.6,4,4.7,7.6,2.7c0.9-0.6,1.9-1,3.1-1.6c1.9,4.3,3.8,8.4,5.8,12.6
		c2.3,5,4.2,5.7,9.2,3.3c3.3-1.6,6.3-3.3,9.6-5.1c4.9-2.9,5.6-5,3.3-10c-1.8-4.1-3.8-8.2-5.8-12.3c1-0.7,1.8-1.1,2.7-1.6
		c5.3-3,5.8-4.1,3.3-9.7c-11-23.6-21.9-46.9-33-70.5c-2.8-5.9-3-5.9-9.4-3.9c-5.3-11.2-10.7-22.6-16-33.7c3.7-4.3,3.7-4.8,0.7-11.4
		c-1.6-3.7-3.7-5.1-7.7-2.9c-7.7,4.3-15.5,8.2-23.1,12.6c-1.3,0.8-3,2.2-3.3,3.7c-1,4.2,3.7,9.8,8.1,10.7c1.2,0.2,2.7,1.6,3.1,2.8
		c4.7,10.3,9.2,20.8,13.9,31.2c-7.2,4.7-7.3,5.2-3.6,13.4c1.1,2.6,2.2,5,3.2,7c-2.8,3-5.1,5.7-7.6,8.3c-2.3,2.6-4.3,5.7-7.1,7.6
		c-32.6,21.8-49.2,67-39.5,107.3c7.7,31.1,25.6,53.8,55.2,67.4c-3.1,4.4-6,8.6-8.6,12.9c-2.8,4.7-6.2,6.7-11.7,5.9
		c-3.9-0.6-7.9,0-11.7-0.1c-4-0.1-5.8,1.8-5.7,5.7c0.1,3.4,0,6.9,0,10.3c0,4,1.9,5.9,6.1,5.8c18.7-0.1,37.5-0.1,56-0.1
		c22.1,0,44.4,0,66.4-0.1c5.3,0,6.9-1.6,7-6.4v-7.6c0-7.1-0.9-8.2-8.1-8.2c-13.9,0.1-27.7,0.1-41.5,0.2h-6.8v-13.7
		c2.7-0.4,5.1-0.8,7.6-1.3c2.7-0.6,5.1-1.3,7.7-2.1c21.3-7.6,36.9-21.3,47.6-40.3c0.7-1.1,1.2-2.2,1.8-3.3c0.8-1.6,1.6-3,2.2-4.6
		c1.3-3,2.9-4.2,6.2-4.1c6.4,0.3,12.9,0.3,19.3,0c1.6-0.1,4.4-1.9,4.3-2.9c-0.3-4.7,2.2-9.7-1.4-13.9c-0.2-0.2-0.9-0.2-1.3-0.2
		c-3.1,0.3-3.6-1.9-4.7-4.1c-3.6-6.1-6.9-12.7-11.7-17.9c-3.3-3.6-6.2-6.4-6.7-11.6c0-0.3-0.1-0.7-0.1-1v-0.1
		c-0.1-1.2-0.2-2.6-0.3-3.8v-0.1c-0.3-6-0.1-11.9,2.9-17.6c1.7-3.2,3.4-5.3,8-4.4c4.2,0.8,8.8,0.2,13.1-0.4
		c16.9-2.3,25.1-17,29.7-30.6C312.2,261.8,310.4,259.1,306.7,259.7z M301.5,213.2c0,1.6,0.6,3.6-0.1,4.9c-4,9.3-7.2,19-12.6,27.6
		c-4.4,7.1-11.8,10.9-20.9,9c-0.4-0.4-0.9-1-1.2-1.4c8.2-10.2,16.3-20.3,24.7-30.6c-12,6.3-19.1,16.9-25.6,28.6
		C261,233.1,281.3,211.7,301.5,213.2z M251.3,257c-5.4-7.2-9-16.1-18.6-20.9c5.7,8.8,10.8,16.6,16.3,25.2
		c-15.8-2.3-28.8-19.5-27.1-33.9C238.3,224.4,253.8,239.9,251.3,257z M208,298.1c2.3,4.1,1.4,6.6-2.8,8.6c-14.6,6.8-10,8-17.2-5.8
		c-0.7-1.2-1-2.7-1.7-4.3c2.8-1.6,5.2-3,7.7-4.3c2.9-1.6,5.8-3,9-4.7C204.6,291.3,206,294.8,208,298.1z M129.5,175.4
		c-3,1.7-4.6,0.7-5.8-2.1c-1.1-2.6-1.7-4.4,1.4-6.1c6.3-3.3,12.6-6.9,18.9-10.3c5.3-2.9,5.3-2.9,7.9,2.9c0.3,0.7,0.7,1.3,1.1,2.6
		C144.9,166.9,137,171.1,129.5,175.4z M131.7,177.7c6-3.3,11.7-6.4,18.2-10c5.6,11.4,10.9,22.9,16.6,34.7
		c-6.6,3.6-12.7,6.8-19.3,10.4C142,201.1,137,189.5,131.7,177.7z M142.1,222.3c-1.1-2.1-0.7-3.3,1.4-4.4c8.9-4.6,17.8-9.2,26.5-14.1
		c3.4-1.9,4.3,0.2,5.4,2.7c7.3,15.8,14.9,31.6,22.3,47.5c3.4,7.1,6.7,14.4,10.2,21.6c1.4,3.1,1.4,5-1.9,6.7
		c-8.7,4.4-17.1,9.1-25.6,13.9c-3.1,1.8-4.8,1.1-6.1-2c-3.4-8-7.1-15.9-10.4-24c-0.4-1.2,0.6-3.4,1.4-4.7c7.9-11.8,3-27.7-10-31.5
		c-2.2-0.7-4.8-0.4-8.3-0.8C145.8,229.9,144.1,226.1,142.1,222.3z M150.7,236.8c9-0.1,15.3,6.8,15.5,16.5c0,9.1-6.7,16.6-14.9,16.7
		c-8.6,0.1-15.2-7.3-15.1-16.9C136.2,244.8,143.5,236.8,150.7,236.8z M90.7,339.8c-1.7-36.6,11.3-66.4,42-88.6
		c0.7,9.4,3.9,16.5,10.2,20.5c-5,5.7-10.6,11.1-15.3,17.2c-26.6,34.9-16.6,90.4,26.2,109.4c6.9,3.1,6.9,3.1,2.8,9.3
		c-3.2,4.7-6.3,9.2-9.6,13.8C114.6,409,92.3,375.6,90.7,339.8z M162.9,405.2c3-4.1,13.6-5.1,18-2.1c1.1,0.7,2,2.6,2,3.8
		c0.1,11.9,0.1,23.8,0.1,36h-46.4C145.6,429.8,154,417.3,162.9,405.2z M239.3,446.5V461H110.9v-14.4H239.3z M248.8,380.2
		c-0.6,1.1-1.1,2.3-1.7,3.4c-10.4,19.8-35.9,41-60.7,41.7v-23.6c3.8-1.2,8.1-2.6,12.1-4.2c11-4.6,19.7-12,26.6-21.6
		c0.9-1.2,2.9-2.3,4.3-2.6h0.1c2.4-0.1,5-0.1,7.4-0.1c4.7,0,9.4,0,14.1,0C250.6,375.6,249.8,377.8,248.8,380.2z M280.8,360.2v9.4
		H168.1v-9.4H280.8z M261,336.4c5.6,7.1,11.2,16.2,11.3,17.8c0,0.4,0.8,1.9,0.9,2.2c0.2,0.8-2.9,0.9-3.7,0.9H208c-1,0-1.1,0.6-1.9,0
		c-0.6-0.4-0.8-1.2-0.8-2.1c0-1.4,0.6-3.4,1.3-5.2c0,0,6.7-12.7,14.7-17c1-0.6,2-1.1,2.9-1.6c1.1-0.6,2.1-1,3.2-1.3
		c2.4-0.9,4.8-1.4,7.2-1.7c0.2,0,0.3,0,0.6,0c1.7-0.1,3.4-0.1,5.3,0.1C247.1,328.9,257.3,331.6,261,336.4z M266.1,292.7
		c8.9-6.7,17.3-13.1,25.8-19.5c-10.7,1.7-17,10-25.6,15.8c5.3-18.2,20.9-27.8,40.8-25.5C306.4,281.8,286.2,296.6,266.1,292.7z"/>
	<path class="st0" d="M231.8,125.3c-1.8,0-4.6,4.1-8.2,12.2c-2.7,5.8-5.4,13.3-5.4,17.1c0,7.6,6.1,13.8,13.7,13.8
		s13.7-6.2,13.7-13.7c0-3.9-2.8-11.4-5.4-17.1C236.4,129.5,233.6,125.3,231.8,125.3z M231.8,166c-6.2,0-11.2-5.1-11.2-11.2
		c0-6.3,8.6-24.6,11.2-26.8c2.8,2.2,11.3,20.5,11.3,26.8C243.1,160.9,238.1,166,231.8,166z"/>
	<path class="st0" d="M262.8,126.9c-3.6-7.9-5-7.9-5.7-7.9c-0.7,0-2,0-5.7,7.9c-0.8,1.8-3.4,7.8-3.4,10.9c0,5,4,9.1,9.1,9.1
		c5.1,0,9.1-4,9.1-9.1C266.3,134.5,263.6,128.5,262.8,126.9z M257.3,144.1c-3.6,0-6.4-2.9-6.4-6.4c0-3.7,4.6-13.4,6.4-15.8
		c1.9,2.3,6.4,12.1,6.4,15.8C263.7,141.2,260.7,144.1,257.3,144.1z"/>
	<path class="st0" d="M244.9,325.4l-10.2,3c-2.3,0.2-4.7,0.7-7.2,1.7c-1,0.3-2.1,0.8-3.2,1.3l-10.1,2.9c4.9-4.7,10.3-7.3,16.3-8.6
		C235.1,324.7,239.9,324.7,244.9,325.4z"/>
	<path class="st0" d="M385.2,284.8L258,321.6l-2.8,0.8c0-1.3,0-2.7,0-4l2.4-0.7l126.5-36.6L385.2,284.8z"/>
	<path class="st0" d="M357.5,293L258,321.8l-2.8,0.8l-9.9,2.9l-10,2.9c-0.2,0-0.3,0-0.6,0c-2.3,0.2-4.7,0.7-7.2,1.7
		c0-1.1,0-2.3,0-3.4l2.4-0.7l0.6-0.1l24.7-7.1l2.4-0.7l98.8-28.6L357.5,293z"/>
	<path class="st0" d="M371.9,451.2l-1.7,2.8c-1.7-0.7-3.3-1.4-5-2.2l-11.6-6.7l-103.7-59.9l-2.8-1.7l-17.5-10.1l-6.7-3.9l-16.3-9.4
		l-7.2-4.2c1.1-0.6,2-1.4,2.8-2.8l3.2,1.9c0,1,0.2,1.8,0.8,2.1c0.8,0.6,0.9,0,1.9,0h1.1l5.1,3l16.3,9.4l6.4,3.8l11.7,6.8l3,1.7
		l86.6,50L371.9,451.2z"/>
</g>
<g>
	<path class="st0" d="M992.4,126.8c-11-5.1-22.6-6-34.2-4.3c-7,0.9-14,3.1-21,4.9c8.7-11.6,11.3-25.3,13.9-39.2
		c1.6-7.8,2.8-15.7,4-23.5c0.2-1.8,1.1-5.1-2.2-4.2c-11.2,2.9-22.6,5.3-32.8,11.4c-29.9,17.9-39.6,50.4-22.2,78.7
		c2.1,3.3,2.3,8.1,2.8,12.1c0.9,8.3,1.8,16.7,2.2,25c0.3,7.6,0.1,15.2,0.1,23.7c-0.7-1-1.1-1.4-1.1-1.8c-2.3-11.3-7-21.2-17.2-27.8
		c-0.7-0.4-1-1.8-1.1-2.8c-0.7-12-5.9-18-17.5-22c-19.5-6.6-40.7,2-48.4,14.2c-5.8,9-9.3,19.5-13.9,29.2c-0.4,1-0.3,2.3-0.4,3.6
		c1.2,0,2.7,0.3,3.9,0c10.6-3.3,21.1-4.1,32-2c13.8,2.7,26.1-0.7,36.6-10.2c2.6-2.3,5.3-4.6,8.3-7c6.9,4.3,11,11.8,14.2,20
		c2.6,6.1,3.6,12.4,4,18.7c0.1,1.1,0.1,2.1,0.2,3c0.2,5.7,0.3,11.2,0.8,16.9c0.2,2.6,0,5.2,0,8c-1.4-2.6-2.1-5.2-3.3-7.6
		c-6-10.6-6-9.7-13.4-1.9c-0.3,0.3-0.7,0.8-1,1.3c-10.6,12.8-22.5,24-37.5,31.1c-9.8,4.7-15.2,12-18.3,21.9
		c-0.8,2.4-1.7,4.9-2.4,7.3c-6.1,18-11.7,36.2-21.3,52.7c-1.1,2.1-1.6,5-1.3,7.4c1.1,11.7,7.6,21.2,13.4,31
		c10.6,17.7,21.3,35.2,31.9,52.9c4.6,7.6,7.3,15.6,8.7,24v0.1c0.1,1,0.3,2.1,0.4,3.1c0.6,5.3,0.6,11-0.1,16.7
		c-0.4,4.8-0.7,9.7-0.9,14.5c0.4,0.1,0.8,0.2,1.3,0.3c0.3-0.9,0.9-1.8,1-2.7c0.4-4.1,0.7-8.2,1.2-12.3c0.6-5.3,0.7-10.8,0.2-15.9
		c0-0.1,0-0.1,0-0.2c-0.1-1-0.2-2-0.3-2.9c0-0.1,0-0.2,0-0.2c-1.1-7.3-3.4-14.5-7.2-21.2c-10.4-18-21.2-35.8-31.6-53.9
		c-5.3-9.3-9.9-19.1-14.7-28.9c-2-4.1-1.1-8.1,1.1-12.1c2.6-4.7,4.9-9.4,6.8-14.4c5.9-15.6,11.6-31.2,17.2-46.9
		c2.7-7.4,7-12.9,14.2-16.7c9.8-5.2,19.6-10.8,27.2-19c0.6-0.6,1.9-0.8,2.8-0.7c6.2,0.9,11.6-1.6,14.1-7.3c1.4-3.1,2.2-6.6,3.3-10.2
		c2.9,3.6,5.2,7.1,5.1,12c-0.2,9-2.9,17.3-7.8,24.8c-9.1,13.9-22.3,22.5-38,27.2c-1.4,0.4-2.6,1.1-3.9,1.8c1.4,0.9,2.4,0.9,3.6,0.7
		c1.1-0.1,2.1-0.4,3.7-0.9c0.4,2.1,1.2,3.9,1.2,5.6c-0.3,13.2-3.8,25-15,33.5c-1.9,1.4-3.3,3-5,4.7c0.2,0.3,0.6,0.7,0.8,1.2
		c0.9-0.4,1.9-0.7,2.7-1.3c7-4.9,13.7-10,15.2-19.7c0.4-3.1,2.6-6.8,5-8.6c8.6-6.1,18.7-7.7,28.9-8.9c1.1,7.8-2.3,26.5-5,30.9
		c-4.9,0.2-9.1,0.6-13.8,0.8c-0.6-4.1-1.3-8.8-1.9-13.4c-0.4,0-1.1,0.1-1.7,0.2c0.7,7.6,1.4,15.2,2.1,22.9c-3.7-1.1-7.1-2.1-10.8-3
		c-0.2,0.6-0.3,1.1-0.6,1.8c4.3,1.9,8.8,3.7,14,6c-4.9,4.2-9.3,8.1-13.8,11.8c0.3,0.3,0.7,0.8,1.1,1.1c3.7-2.4,7.1-4.9,10.8-7.3
		c10.9-7.4,18.5-17.2,20-30.8c1.7-14.2,3.2-28.7,3.9-43c0.6-12.3,6.2-22.9,9-34.5c1.8,3.2,3,6.6,4.3,9.8c2.1,5.2,4.3,10.3,9.6,13.4
		c1.3,0.7,2.6,2.8,2.7,4.2c0.4,10.3,0.3,20.7,1.1,30.9c1,16.7,2.2,33.5,4.1,50c1.4,13.3,4.3,26.6,6,39.8c1.9,14.7,0.9,29.2-1.4,43.6
		c-1,6.6-2,13.1-2.6,19.7c-0.1,1.2-0.2,2.2-0.3,3.2c-0.9,10.8-1.1,21.7-0.9,32.5c0,0.9,0.3,1.9,0.4,2.7c1.1-1.1,1.3-2.1,1.3-3.1
		c0-11.1,0.8-22.1,1.9-33.1c0.1-1.1,0.2-2.2,0.3-3.3c1-10,2.3-20,3.6-30c1.8-15.9,1.3-31.8-1.7-47.6c-1.7-8.6-3.3-17.2-4.9-25.8
		c4.8-1.3,10-1.6,12-6.6c2.2-5.4-2.9-8.2-5.8-11.9c2.4-1.4,4.8-2.4,6.9-3.9c3-2,4.4-4.9,3.9-8.6c-0.4-3.3-2.9-4.7-5.9-5.6
		c-3-0.8-6.2-1.3-9.1-2.6c-2.7-1.1-5.4-2.6-5.6-6.3c-0.8-21.8-1.7-43.3-2.4-65.1c0-1.1-0.2-2.2-0.3-3.3c-0.3-3.8-2.7-4.6-5.8-3.3
		c-2.9,1.1-5.6,2.4-8.7,3.8c-0.3-1.1-0.7-1.9-0.8-2.7c-1.1-6.7-1.9-13.3-1.9-20.1v-3.3c0.1-2.6,0.2-5,0.6-7.6
		c1.1-10.2,2.4-20.3,6.9-29.8c2.1-4.4,4-8.1,9.8-6.2c0.6,0.2,1.4,0,2.1-0.1c14.1-1.6,27.1-6.3,37.8-15.8
		c11.3-10,21.7-21.1,32.2-31.9C996.7,129.8,995.1,128,992.4,126.8z M881,179.2c-8.8-1.6-17.7-3.6-26.7-4.4c-9.1-0.9-17.6,2-25.2,7.1
		c16.9-5.9,33.6-7.2,50.6,1.1c-9.3,13-21.8,18.1-36.6,16.3c-12.6-1.6-24.8-2.9-37.8,2.7c4.2-10.8,8-20.5,14-29.1
		c6.4-9.1,16-13.3,26.5-15.1c9.9-1.7,19.5,0.9,27.8,6.2C878.3,166.9,881.2,174.3,881,179.2z M876.6,255.7c5.1-4.9,9.9-9.6,14.6-14.1
		C892.3,249,884.8,257.7,876.6,255.7z M874.9,359c-0.8-4.4-1.6-7.8-2.3-11.9h12.8C881.5,351.3,878.4,354.9,874.9,359z M892,308.6
		c-10.4,2.9-20.7,5.9-30.8,8.8c-0.3-3.4-0.7-7.7-1.1-12.6c13.9-4.8,25.2-13.9,34.2-26.1C893.5,289.1,892.8,299.1,892,308.6z
		 M937.9,353.1c0.1,1.6-1.1,4-2.6,4.8c-2,1.3-4.7,1.7-7.7,2.6c-0.4-5.8-0.9-10.3-1.3-14.9C930.4,344.9,937.3,349.2,937.9,353.1z
		 M936.4,328.6c2.3,0.9,4.2,2.8,6.3,4.3c-1.6,2.2-2.7,5.1-4.8,6.4c-3.4,2.1-7.7,3.1-12.2,4.9c-0.4-7.3-0.9-13.7-1.3-19.7
		C928.9,326.1,932.8,327,936.4,328.6z M910,251.5c2.2-1.8,5.3-2.3,8.2-3.1c0.2,0,1.2,1.4,1.2,2.1c0.1,8.7,0.1,17.5,0.1,26.2
		c-4.9-2.2-6.8-7.1-9-11.7c-1.1-2.3-1.6-5-2.7-7.2C906.3,254.7,908.7,252.6,910,251.5z M914.5,176.9c-2.4,5.2-5.2,10.6-8.1,16.1
		c-4.4-19.8-4.6-39,0.7-58.4c5.1-19,17.3-34.3,27.7-50.6c-9.1,9-15.6,19.8-22.2,30.3c-6.8,10.8-9.3,23.1-11.6,36
		c-7.9-11.8-11.3-24.1-8.4-37.6c5.7-26.6,24.3-40.1,49-47.1c3.6-1,7-1.8,11.8-2.8c-3.7,16.3-6.7,32.1-10.9,47.7
		c-1.8,6.3-6,11.9-9.3,17.8c-1,1.6-2.7,2.8-4.2,3.9c-14.7,9.9-19.6,23.7-14.2,40.8C915.1,174.3,915.1,175.8,914.5,176.9z M956,165.1
		c-10.8,9-24.1,12.2-39.1,12.3c14.1-22.6,34-34.6,59.8-37.2c-0.1-0.4-0.2-0.8-0.3-1.3c-3.1,0-6.4-0.4-9.4,0.1
		c-19.8,3.8-35.5,14.1-47.4,30.2c-0.7,0.9-1.6,1.9-2.7,3.2c-4.4-16.1,0.6-29.1,14-37.6c17.6-10.9,36.1-13.6,55.9-7.1
		c1.8,0.6,3.3,1.6,5.9,2.6C980.1,142.1,968.7,154.3,956,165.1z"/>
	<path class="st0" d="M1032.6,250c-7-27.7-39.3-39.2-62.5-22.7c-5.2,3.8-9.2,8.7-12.1,14.2c-0.4,0.9-0.9,1.8-1.3,2.7
		c-6.9,15.6-5,35.1,6.6,48c9.3,10.6,21.1,16.1,35.6,13.6c3.3-0.6,6.6-1.6,9.6-2.8c0.9-0.4,1.9-0.9,2.8-1.3
		c14.3-7.3,23.3-22.3,23.2-39.6C1033.8,258.2,1033.5,254.2,1032.6,250z M1016.3,294.2c-2.1,1.7-4.3,3.1-6.7,4.3
		c-0.9,0.4-1.9,0.9-2.8,1.3c-15.1,6.4-32.5,1.9-43.2-12c-9.3-12.2-10.6-28.6-4.3-41.8c0.4-0.9,0.9-1.8,1.3-2.7
		c2.6-4.4,5.9-8.6,10.2-11.9c21.1-16.6,53.5-4.9,58.8,21.2c0.8,3.4,1,6.8,1.2,8.8C1030.6,275.3,1026,286.1,1016.3,294.2z"/>
	<path class="st0" d="M752.7,353.5c-1.1-0.4-2.2-0.7-3.3-0.9c0-1.1,0-2.2,0-3.3c0-2.4,0-5,0.2-7.6c0.3-6.6,1.2-13,2.8-19.5
		c0.2-1.2,0.6-2.3,0.9-3.6c0.9,0.9,1.8,1.7,2.8,2.4c-0.3,1.1-0.6,2.2-0.8,3.3c-1.2,5.8-2.1,11.6-2.3,17.3c-0.1,2.8-0.2,5.4-0.2,8.1
		C752.7,351.2,752.7,352.3,752.7,353.5z"/>
	<path class="st0" d="M861.6,475.2L861.6,475.2c-0.9-0.1-1.8-0.2-2.7-0.4c-22.1-4.3-43.3-14.1-61.7-29.1c-27-21.9-42-48.2-46.5-77.8
		c-0.2-1.2-0.3-2.4-0.4-3.7c1.1,0.4,2.2,0.8,3.4,1c0.1,1.1,0.3,2.3,0.4,3.4c4.6,28.3,19.2,53.7,45.1,74.7
		c17.7,14.2,38,23.7,59.1,28.2l0,0c0.9,0.2,1.9,0.4,2.8,0.6l0,0C861.4,473.1,861.5,474.2,861.6,475.2z"/>
	<path class="st0" d="M960.7,243.3c-0.4,0.9-1,1.8-1.3,2.7c-0.9-0.6-1.8-1.1-2.7-1.7c-15.3-9.2-32.7-15.1-51.8-17.5
		c-0.1,0-0.3,0-0.4,0c-0.7,0-1.3-0.1-2-0.2c-4.3-0.6-8.8-0.8-13.3-0.9c-8.2,0.3-13.9,0.2-19.5,0.9c-5.8,0.7-11.4,1.9-17.1,3.1
		c-39.5,9.1-69.8,34.3-86.1,64.9c-0.6,1.1-1.1,2.2-1.7,3.2c-0.7-1.1-1.3-2.1-2.1-3.1c0.6-1,1-2,1.6-3c17-30.6,47.7-55.8,87.4-64.9
		c5.8-1.2,11.6-2.6,17.5-3.2c5.7-0.7,11.4-0.6,19.9-0.9c4.4,0.1,8.8,0.3,13.1,0.8h0.1c0.8,0,1.4,0.1,2.2,0.2c0.1,0,0.2,0,0.3,0
		c19.7,2.4,37.5,8.4,53.2,17.8C958.9,242.2,959.8,242.7,960.7,243.3z"/>
	<path class="st0" d="M970,448.5c-12.2,9.3-25.5,16.3-39.1,21.1c-0.9,0.3-1.9,0.7-2.8,0.9c0.1-1.1,0.2-2.1,0.3-3.3
		c0.9-0.2,1.9-0.6,2.8-0.9c12.9-4.6,25.2-11.3,36.8-20.1c47.1-36.1,61.8-93.9,40.3-143.2c-0.4-1.1-1-2.2-1.4-3.2
		c0.9-0.4,1.9-0.8,2.8-1.3c0.6,1.1,1,2.1,1.4,3.2C1033.3,352.2,1018.4,411.4,970,448.5z"/>
	<path class="st0" d="M766.5,294.6c-0.7-1-1.3-1.9-2.1-2.8c-2.9-3.3-6.6-6.2-11.1-8.7c-4.4-2.4-6.2-1.2-8,3.1
		c-5.7,14-3.1,26.8,7.2,36c0.9,0.8,1.9,1.6,2.8,2.3c1.6,1.1,3.3,2.2,5.1,3.2l5.9,3.2c0,0,0,0,0.1-0.1c0.2-0.3,1.4-2.2,2.6-4.4
		c1.1-2.2,2.2-5.3,2.7-8.9c0-0.3,0.1-0.8,0.1-1.1c0-0.4,0.1-0.9,0.1-1.3c0-0.2,0-0.4,0-0.6c0-0.2,0-0.4,0-0.8v-0.1
		C772,306.6,770.3,300.2,766.5,294.6z M765.5,326.7c-3.6-1.4-6.8-3.3-9.4-5.6c-1-0.8-1.9-1.7-2.8-2.4c-8.9-9-10.8-21.9-3.8-33.1
		c5.3,1.7,9.8,5,13.1,9.3c0.8,1,1.4,2,2.1,3.1C769.8,306.6,770.8,317.8,765.5,326.7z"/>
	<path class="st0" d="M1008.8,279.8c0-3.2,0-6.6,0-10.8c-2.8,2.3-4.8,4-6.8,5.8c-0.3-0.3-0.7-0.8-1-1.1c1.6-1.8,3.2-3.4,5.2-5.8
		c-3.7-0.2-6.8-0.4-9.8-0.6c0-0.4,0-0.9,0-1.4c3-0.2,6-0.3,9.6-0.6c-1.8-2.2-3.3-4.1-4.8-5.9c0.2-0.3,0.6-0.6,0.8-0.9
		c2,1.7,4,3.2,6.9,5.6c0-4.1,0-7.6,0-10.9c0.6,0,1.1,0,1.7,0c0.2,3,0.4,5.9,0.7,9.6c2-1.6,3.6-2.9,5.1-4.1c0.3,0.2,0.6,0.4,0.9,0.7
		c-1.3,1.8-2.7,3.6-4.4,5.9c3.8,0.2,7.2,0.4,10.7,0.7c0,0.4,0,0.9,0,1.3c-3.3,0.2-6.7,0.4-10.6,0.7c1.7,2.2,3.1,4.1,4.6,5.9
		c-0.3,0.2-0.6,0.6-0.9,0.8c-1.6-1.2-3-2.6-5-4.2c-0.3,3.6-0.6,6.6-0.8,9.6C1009.9,280.1,1009.4,279.9,1008.8,279.8z"/>
	<path class="st0" d="M977.3,277.4c-4,0-6.9,0-9.7,0c0-0.4-0.1-0.8-0.1-1.2c1.4-0.1,2.9-0.4,4.3-0.4c1.6-0.1,3,0,5.6,0
		c-2.2-2.6-3.8-4.3-5.3-6.2c0.3-0.3,0.7-0.7,1-1c1.9,1.7,3.9,3.4,6.8,6c0-4.4,0-7.8,0-11.1c0.6,0,1,0,1.6-0.1c0.2,3,0.4,5.9,0.7,9.4
		c2-1.7,3.7-3,5.3-4.2c0.3,0.3,0.6,0.6,0.9,0.9c-1.4,1.8-3,3.6-4.9,6c3.9,0.2,7.4,0.4,11,0.7c0,0.4,0,0.9-0.1,1.2
		c-3.3,0-6.7,0-11.2,0c2.3,2.8,3.8,4.6,5.3,6.3c-0.2,0.3-0.6,0.6-0.8,0.9c-1.7-1.2-3.2-2.4-5.4-4.1c-0.2,3.6-0.3,6.6-0.6,9.6
		c-0.4,0-0.9,0-1.3,0c0-3.3,0-6.7,0-9.9c-0.3-0.1-0.8-0.3-1.1-0.4c-2,1.7-3.9,3.4-5.9,5.1c-0.3-0.3-0.7-0.6-1-0.9
		C973.7,281.9,975.1,280.2,977.3,277.4z"/>
	<path class="st0" d="M982.5,247.3c-4,0-6.9,0-9.7,0c0-0.4-0.1-0.8-0.1-1.2c1.4-0.1,2.9-0.4,4.3-0.4c1.6-0.1,3,0,5.6,0
		c-2.2-2.6-3.8-4.3-5.3-6.2c0.3-0.3,0.7-0.7,1-1c1.9,1.7,3.9,3.4,6.8,6c0-4.4,0-7.8,0-11.1c0.6,0,1,0,1.6-0.1c0.2,3,0.4,5.9,0.7,9.4
		c2-1.7,3.7-3,5.3-4.2c0.3,0.3,0.6,0.6,0.9,0.9c-1.4,1.8-3,3.6-4.9,6c3.9,0.2,7.4,0.4,11,0.7c0,0.4,0,0.9-0.1,1.2
		c-3.3,0-6.7,0-11.2,0c2.3,2.8,3.8,4.6,5.3,6.3c-0.2,0.3-0.6,0.6-0.8,0.9c-1.7-1.2-3.2-2.4-5.4-4.1c-0.2,3.6-0.3,6.6-0.6,9.6
		c-0.4,0-0.9,0-1.3,0c0-3.3,0-6.7,0-9.9c-0.3-0.1-0.8-0.3-1.1-0.4c-2,1.7-3.9,3.4-5.9,5.1c-0.3-0.3-0.7-0.6-1-0.9
		C978.8,251.8,980.2,250,982.5,247.3z"/>
	<path class="st0" d="M803.5,319.6c-0.7-3.1-2-3.6-4.8-2.6c-11.1,3.7-16.2,12.6-13.8,24.3l0.9,4.2l0,0c0.2,0,1.7-0.2,3.2-0.6
		c1.6-0.4,3.4-1.1,5.3-2.3c0.2-0.1,0.4-0.2,0.6-0.4c0.2-0.1,0.4-0.3,0.7-0.6c0.1-0.1,0.2-0.1,0.3-0.2c0.1-0.1,0.2-0.2,0.3-0.3l0,0
		C802.9,335.9,805.4,328.5,803.5,319.6z M788.8,341c-3.2-9.8,1.7-18.7,10.8-20C803.2,329.1,797.6,339.5,788.8,341z"/>
	<path class="st0" d="M766.2,364.1c-0.4-1.6-1.1-3.4-2.3-5.3c-0.1-0.2-0.2-0.3-0.4-0.6c-0.2-0.2-0.3-0.4-0.6-0.7
		c-0.1-0.1-0.1-0.2-0.2-0.3c-0.1-0.1-0.2-0.2-0.3-0.3l0,0c-2.7-3.3-6-5.6-9.7-6.8c-1.1-0.3-2.1-0.6-3.3-0.8
		c-2.7-0.3-5.6-0.2-8.6,0.3c-3.1,0.7-3.6,2-2.6,4.8c2.3,6.9,6.7,11.6,12.6,13.4c1.1,0.3,2.2,0.6,3.4,0.8c2.6,0.3,5.3,0.2,8.3-0.4
		l4.2-0.9l0,0C766.7,367,766.5,365.5,766.2,364.1z M753.7,365.1c-1.2-0.2-2.3-0.6-3.4-1c-4.2-1.8-7.2-5.6-8-10.7
		c2.2-1,4.8-1.2,7.2-0.9c1.1,0.1,2.2,0.4,3.3,0.9c4.7,1.8,8.7,5.8,9.4,10.9C759.3,365.3,756.4,365.5,753.7,365.1z"/>
</g>
<g>
	<path class="st0" d="M-92.9,179.2c-1.1,0.1-2.9,0-3.6-0.8c-4-4.4-7.7-9-11.6-13.6c3.4-3,6.3-6.8,5.3-11c-2.4-6.6,0.8-9.4,6-12
		c1.9-0.9,3.4-2.2,5.2-3.4c0.8,0.6,1.4,1.1,2.1,1.6c3.2,1.9,6.4,1.6,9.3-0.9c2.8-2.4,3.4-5.9,1.9-9.1c-1.7-3.2-4.9-5.1-8.2-4.4
		c-3.6,0.7-7.1,3.6-6.7,6.8c0.7,4.4-2.1,6-5.1,7.9c-2.6,1.6-4.9,3.2-7.3,4.9c-7.8-7.1-15.6-8-21.8-2.4c-7,6.1-6,15.1,2.7,24.7
		c-6.9,11.2-13.9,22.5-20.9,33.9c-5.2-2-10-1.6-14.4,1.7c-9.1-11.9-18-23.6-26.9-35.2c4-4.7,5.6-9.2,4.2-14.1c-0.7-2.3,0.2-3.1,2-4
		c8.2-4.6,16.3-9.3,24.7-13.8c0.9-0.6,2.9-0.2,3.9,0.4c2.6,1.8,5.2,2.9,8.4,1.9c5.6-1.7,8.6-6.7,7.1-12.3c-1.1-4.4-6-8-10.4-7.2
		c-5.8,0.9-9.3,5.8-8.8,11.7c0.1,1-0.2,2.4-0.9,2.9c-9.2,5.3-18.5,10.6-27.6,15.7c-2-1.6-3.6-3.1-5.6-4c-2-1-4.4-1.3-6.7-1.9
		c-1.6-9-3-18-4.6-27c-0.4-2.6-0.6-4.6,1.7-6.7c2.2-2,2.6-5.1,0.4-7.4c-1.2-1.4-3.8-3.3-5.1-3c-2.2,0.6-4.4,2.6-5.6,4.4
		c-1.7,2.7,0.2,5.8,3.4,7.8c1.1,0.7,2.2,2,2.4,3.1c1.6,8.4,2.3,17.1,4.4,25.5c1,4-1.3,5.2-3.9,6.3c-1.1,0.6-3.3-0.7-4.9-1.2
		c-1.1-0.4-1.9-1.2-2.9-1.9c-9.7-6.7-19.5-13.4-29-20c3.1-10.3,0.4-17.6-7.3-20.7c-7-2.8-13.7,0.4-18.7,9.1
		c-13.1-3.3-26.3-6.7-39.3-9.9c-0.7-6.9-4.7-11.3-10.2-11.8c-5.6-0.4-10.8,3.3-12,8.6c-1.4,6,1.6,11.7,7.1,13.7
		c6.4,2.3,12.1-0.8,15.3-7.9c10.6,2.7,21.1,5.3,31.8,8c4.2,1.1,9,1.6,7.8,7.6c-0.1,0.4,0.2,1,0.4,1.4c1.1,1.9,0.4,3-1.3,4.2
		c-8,5.4-15.8,11.1-23.8,16.5c-1,0.7-2.9,0.8-4,0.3c-3.7-1.6-6.9-1.1-9.9,1.1c-3.4,2.6-5,6.1-4.1,10.1c1.2,5.7,6.9,8.9,12.4,7.4
		c5.2-1.4,8.3-7.8,6.6-13c-0.3-1.1-0.7-3-0.1-3.4c8.9-6.4,17.9-12.7,26.2-18.5c3.9,1.9,7.1,3.4,10.6,5.1
		c-1.4,13.9-2.9,28.1-4.4,42.3c-11.3,3.9-13.7,10.1-7.3,19.8c-9.6,10.2-19.2,20.6-28.8,30.8c-5.3-1.6-5.3-1.6-11.8,1.8
		c-10.4-5.8-20.8-11.6-31.2-17.3c-0.4-0.2-0.9-0.6-1.1-0.8c0.9-1.7,1.3-3.6,1.3-5.6c0.1-3.4-1.1-6.7-3.6-9.1
		c-2.3-2.4-5.6-3.8-8.9-3.8c-6.9,0-12.6,5.6-12.7,12.6c0,3.3,1.2,6.4,3.6,8.9c2.3,2.4,5.6,3.8,8.9,3.9h0.1c4,0,7.6-1.9,9.9-4.9
		c9.6,5.3,20.1,11.4,30.7,17.6c0.9,0.6,1.9,1.7,1.9,2.6c0,6,2,8.4,8.6,9.6c2.1,12,4.2,24.1,6.1,36.3c0.1,0.8-0.9,2.1-1.8,2.6
		c-8.3,4.2-10.4,11.3-6,19.3c0.6,0.9,0.6,2.6,0,3.4c-3.1,4.8-6.6,9.4-9.9,14.2c-3.2-1.3-5.8-0.4-7.3,2.3c-1.6,2.9-1.4,5.8,1.2,8.1
		c1.9,1.8,4.2,2,6.4,0.6c3-2.1,4-4.7,2.4-8.1c-0.3-0.9-0.4-2.2,0-2.9c3.2-4.8,6.6-9.4,9.9-14.1c10.6,3.1,16.1,0.1,19.1-9.8
		c0.3-1.1,1.8-2.3,3-2.6c5.4-1.3,11-2.3,16.5-3.4c16.3-3.3,32.7-6.7,48.7-10c1.6,3.1,3,5.9,4.4,8.7c-6.6,7.4-13.2,14.9-19.8,22.5
		c-0.9-0.4-1.6-0.8-2.3-1c-3.8-1.1-7.2-0.8-10,2.2c-2.9,3.2-3.4,6.9-1.7,10.7c1.6,3.6,4.4,5.3,8.7,5.1c6.1-0.3,10-6,8.3-12.1
		c-0.3-1.4-0.9-3.4-0.1-4.3c6.2-7.3,12.8-14.3,18.7-21c4.6,0.6,8.3,1,12.4,1.6c1.2,8.1,2.3,16.3,3.7,24.6c0.6,3,0.8,5.3-2,7.9
		c-3,2.6-3.6,6.3-1.7,9.9c1.7,3.1,4.2,5.1,8.2,5.4c1.1,0.1,2.8,1.2,3.1,2.3c3.9,10,7.4,20.1,11.1,30.2c0.8,2.2,1.1,3.9-0.8,6
		c-2.2,2.4-1.3,5.3,0.9,7.8c1.9,2.1,4.3,2.4,6.8,1.3c3.1-1.4,4.3-4.3,3.3-7.1c-0.8-1.9-3.1-3.3-4.8-4.9c-0.8-0.8-2.2-1.3-2.6-2.2
		c-4.1-10.8-8-21.6-11.9-32.3c-0.3-0.9-0.1-2.1,0.4-2.9c1-1.4,2.4-2.8,3.8-4.2c8.8,2.9,17.6,5.8,26.3,8.6
		c-1.6,8.2,0.9,14.1,6.7,16.3c4.9,1.9,10.1,0.2,13.3-4.2c3.8-5.2,2.7-11.6-3.2-17.6c5-8.9,10-17.8,15.2-26.7
		c0.7-1.2,2.6-2.2,4.1-2.4c3.8-0.6,5.4-2.8,6.3-5.8c0.9-3.3-0.8-6-3.6-8c-2.6-1.8-5-1.3-7.7,0.1c-1.3,0.8-3.3,1.1-4.9,0.9
		c-7.9-1.1-15.8-2.6-23.6-3.9c-3.3-0.6-7.1-0.7-7.8-5c-0.1-0.8-1.2-1.9-2-2.1c-2.8-0.9-2.2-2.9-2-4.8c0.4-4.8,1-9.6,1.3-14.3
		c1-10.6,1.9-21.1,2.8-31.3c3.3-1.3,6.6-2.6,10-3.9c5,5.2,10.3,10.8,15.7,16.3c-2.3,4.9-1.7,8.3,2.1,10.9c2.7,1.8,6.9,1.6,9.4-0.6
		c2.8-2.2,3.6-6.9,1.7-9.8c-2.3-3.6-5.3-4.2-11.3-2.1c-5.3-5.6-10.7-11.1-15.2-15.9c0.9-5,1.7-9.1,2.4-13.8
		c11.3-4.4,23.3-9.2,35.5-14c2.6,3.7,5.4,6.6,10.4,6.4c7-0.2,11.8-5.9,11-13C-80.2,182.3-85.6,178.2-92.9,179.2z M-85,127.9
		c2.8,0.1,5.4,2.8,5.3,5.3c-0.1,2.7-2.9,5.1-5.7,5c-2.9-0.1-5.4-2.8-5.3-5.3C-90.6,130.4-87.7,127.8-85,127.9z M-145.9,121.3
		c3.9,0,7,3.1,7,7c0,3.9-3,7-6.9,7.1c-4.1,0.1-7.4-3-7.4-7C-153.2,124.3-150.1,121.3-145.9,121.3z M-203.8,108.4
		c-1.4-0.2-3.4-2.2-3.4-3.4c0-1.2,2.1-3,3.6-3.4c0.9-0.2,2.4,1.7,4.7,3.4C-201.2,106.6-202.7,108.6-203.8,108.4z M-316.6,109.5
		c-5.2,0-8.8-3.6-8.8-8.8c0-5,3.7-8.4,8.8-8.4c4.9,0,8.4,3.7,8.4,8.8C-308.2,105.8-311.8,109.4-316.6,109.5z M-298.8,158.3
		c-3.9-0.2-7.6-4.1-7.3-7.8s4-7.1,7.8-7c3.9,0.1,7.1,3.6,7,7.4C-291.6,154.6-295.5,158.4-298.8,158.3z M-348.2,211.7
		c-2.7,0-5.2-1-7.1-3c-1.9-1.9-3-4.4-3-7.2s1-5.3,3-7.2c1.9-1.9,4.4-3,7.2-3c2.7,0,5.2,1,7.2,3c1.8,1.9,2.8,4.4,2.8,7.2
		C-338.1,207.3-342.5,211.7-348.2,211.7z M-312.1,323.3c-1-0.1-2.9-2.2-2.8-3.1c0.3-1.3,2-2.8,3.4-3.1c0.8-0.2,2.1,1.8,4.1,3.4
		C-309.4,321.9-310.8,323.5-312.1,323.3z M-230.6,319.9c-3.8-0.1-6.4-2.8-6.2-6.6c0.1-3.6,3.2-6.3,6.9-6.1c3.6,0.1,6.1,2.9,6,6.4
		C-223.9,317.5-226.7,320-230.6,319.9z M-164.1,373.4c1.4,0.1,2.9,1.8,5.1,3.3c-2.1,1.6-3.7,3.6-4.7,3.3c-1.4-0.3-3.1-2.1-3.4-3.4
		C-167.3,375.6-165.1,373.4-164.1,373.4z M-119.8,241.1c3.2-0.2,4.9,1.7,5.2,4.3c0.3,2.6-2.2,4.8-6.1,4.8c-2.1-0.1-4-1.6-4-4.6
		C-124.8,242.6-122.6,241.3-119.8,241.1z M-129.4,153.2c0-6.9,5.2-12.1,12.1-11.9c6.3,0.1,11.7,5.8,11.6,12.2
		c-0.1,6.8-5.1,11.6-12,11.6C-124.6,165-129.4,160.2-129.4,153.2z M-195.1,145.8c5.8,0.1,10.6,5.2,10.4,11.3
		c-0.1,6-4.4,10.3-10.3,10.3c-6.2,0-10.6-4.4-10.4-10.9C-205.5,150.4-200.9,145.7-195.1,145.8z M-263.7,115.4
		c0-6.4,5.6-12,11.9-11.9c5.9,0.1,11,5.6,11,11.8s-5.4,11.9-11.4,11.9C-258.5,127-263.7,121.7-263.7,115.4z M-252.3,147.3
		c0.6-5.2,1.2-10.6,2-15.8c0.1-0.8,0.8-1.8,1.4-2.2c2.4-1.6,5.1-2.9,8-4.4c11.3,7.8,22.9,15.8,33.9,23.3c-0.3,4-1.3,7.7-0.8,11.1
		c0.7,3.3,3,6.3,4.8,10c-5,10.4-10.4,21.8-16,33.3c-5.1-1.8-9.9-1.1-14.2,2.2c-5.6-4.2-11-8.4-16.7-12.8c5.1-8.1,3.3-14.6-5.1-18.8
		C-254.1,164.6-253.3,155.9-252.3,147.3z M-213.9,216c0,6.6-4.2,10.7-10.8,10.6c-6.4-0.1-11.3-5-11.3-11.3c0-5.7,5.7-10.7,11.9-10.6
		C-218.1,204.7-213.9,209.4-213.9,216z M-265.3,184.1c-0.1-4.6,3.2-8,7.7-8c4.2,0,8,3.7,8.1,7.9c0.1,4.3-3.7,8.1-7.9,8.2
		C-261.6,192.2-265.1,188.6-265.3,184.1z M-298.3,235.4c-3,0-5.3-2-5.4-4.7c-0.1-2.6,2.6-5.4,5.2-5.6c3-0.1,5.6,2.2,5.6,5.1
		C-292.8,233.4-294.9,235.3-298.3,235.4z M-289.7,299.1c-5,0-9.4-4.3-9.6-9.4c0-5.3,4.6-9.8,10-9.8c5.2,0,9,3.8,9.1,9.1
		C-280,294.6-284.3,299-289.7,299.1z M-194.7,284.2c-6.6,0.1-11.6-5.2-11.6-12c0-6.7,5.1-11.7,11.9-11.7c6.3,0,11.2,5,11.2,11.4
		C-183.1,278.6-188.5,284.2-194.7,284.2z M-182.4,331.7c-3.9,0-6.3-2.6-6.3-6.4c0.1-3.7,2.6-6.1,6.2-6.2c3.9,0,6.6,2.8,6.6,6.8
		C-176,329.5-178.6,331.7-182.4,331.7z M-127.1,342.5c-0.2,5.1-4.6,9.4-9.3,9.2c-5-0.2-8.2-4.1-8.1-9.6c0.1-5.1,3.8-8.8,8.6-8.7
		C-130.9,333.6-126.9,337.6-127.1,342.5z M-111.8,291c3.3,0,4.3,2.1,4.7,4.3c-0.1,3.4-2.1,5-5,5c-3.1,0-4-2.3-4.1-4.9
		C-116.2,292.8-114.9,291-111.8,291z M-150.7,287.4c10.4,1.9,21,3.7,31,5.4c0.6,2.6,0.3,5,1.6,6.2c2.8,2.8,1.2,4.7-0.2,7.1
		c-4.7,8.1-9.2,16.2-13.9,24.6c-4.9-1-9.1,0.1-12.7,3.7c-0.4,0.4-1.9,0.3-2.8,0c-8.6-2.8-17.2-5.7-25.8-8.6
		c-1.3-7.4-3.2-9.3-10.6-10c-1.1-7.1-2.2-14.4-3.3-21.7c-0.1-1-0.2-2-0.4-2.9c-0.9-3.4-1.3-6.6,2.6-8.9c1.4-0.9,2.2-3,3.4-4.7
		c3.2,1.1,6.4,2.4,9.8,3.3c3.9,1,7,2.1,7.7,6.8c0.2,1.7,3.2,3.7,5.4,4.3C-155.4,293.2-153.4,291.7-150.7,287.4z M-153.4,285.4
		c0.1,1.4-2.1,3.2-2.9,4.2c-4.3,0-5.6-1.8-5.7-4.2c-0.1-2.8,1.8-4.9,4.4-4.3C-155.9,281.3-153.7,283.8-153.4,285.4z M-158.9,276.3
		c-0.2,1.8-3.1,3.3-4.7,5c-5.9-1.9-11.4-3.8-17.2-5.7c0-1.8,0.2-3.7,0-5.4c-0.8-4.9-3.1-8.8-8-11.2c-1-0.6-2.2-2.1-2.1-3.1
		c1.1-8.7,2.6-17.2,3.9-25.9c5.6-1.9,8.6-5.8,6.6-9.6c-1-1.9-3.6-3.4-5.7-4.2c-2.9-1-5.3,0.7-6.8,3.2c-1.4,2.6-1.8,5.7,0.7,7.6
		c3,2.3,2.7,4.8,2.1,7.8c-1.2,7.6-2.2,15.1-3.3,22.6c-10.6,1.9-13,4.2-16,15c-22.5,4.6-45.1,9.1-68,13.8c-1.7-4.7-4.7-7.9-9.9-9.1
		c-0.9-0.2-1.8-2.1-2-3.4c-1.6-8.6-2.9-17.2-4.2-25.9c-0.2-1.4-0.4-2.9-0.8-4.3c-0.7-3-1-5.4,2.2-8c1.7-1.3,1-5.1,1.4-7.9
		c0.2-1.3,0-3.1,0.9-4c9.1-9.9,18.5-19.6,27.3-29c2.8,0.2,5.1,1,6.8,0.3c3.6-1.3,5.8,0,8.3,2c4,3.2,8.1,6.2,12.3,9.6
		c-5.3,7.4-4,14.3,2.4,21c-4.1,6-8.4,12.2-12.6,18.3c-5.7-1.2-9.9,0.9-12.1,5.8c-1.9,4.3,0,9.3,4.2,11.9c3.4,2,8.1,1.1,11.1-1.9
		c4-4.2,3.7-8.9-1.1-14.7c3.8-5.4,7.6-10.9,11.4-16.2c0.6-0.8,2.1-1.6,3-1.3c6.1,1.1,11.3,0,14.7-5.2c3.7-5.7,3.8-11.7-0.6-16.9
		c-2.1-2.6-1.8-4.2-0.6-6.8c5-10.1,9.8-20.3,14.7-30.6c3.8,0,7.3,0,11.9,0c8.4,11,17.5,22.8,26.5,34.6c-6.3,11.1-3.9,19,7.8,24.1
		C-155.7,244.2-157,260.3-158.9,276.3z M-187.1,226.5c-1.4,0.1-3-2-4.6-3.1c0.9-3.4,2.4-4.6,5-4.6c2.8,0,4.4,2,3.9,4.1
		C-183.2,224.4-185.6,226.4-187.1,226.5z M-242.2,254.8c0,4-2.7,6.7-6.8,6.6c-3.7-0.1-6.6-3-6.6-6.6c0.1-3.6,3.3-6.8,6.9-6.8
		C-245,248.1-242.2,251-242.2,254.8z M-151.8,225.1c-6.7,0-11-4.3-11-10.9c0-6.9,4.8-11.7,11.8-11.7c6.3,0,10.9,4.9,10.8,11.7
		C-140.2,220.8-144.9,225.1-151.8,225.1z M-102.5,192.3c-0.2,0.8-0.9,1.8-1.7,2.1c-11.4,4.6-22.8,9-34.2,13.4
		c-1.6-1.9-3-3.6-4.7-5.4c7.1-11.6,14.2-23.2,21.3-34.7c2.4,0,4.9,0.7,6.7-0.1c4-2,6-0.4,8.2,2.6c2.8,3.8,5.9,7.2,8,9.7
		C-100.2,184.5-101.3,188.5-102.5,192.3z M-91.5,199.6c-4.3-0.1-8.6-4.3-8.7-8.6c-0.1-5.2,3.9-9.2,9-9.2c5.1,0,8.3,3.4,8.3,8.7
		C-82.9,195.6-86.7,199.7-91.5,199.6z"/>
	<g>
		<path class="st0" d="M-327.2,299c-0.6-3.2-1.3-6.9-2.4-10.4c-0.9-2.9-2.1-5.9-3.8-9.2c-1.3-2.6-3.4-3.4-6.1-2.4
			c-6.8,2.4-13.6,4.9-20.4,7.4c-5.4,2-10.8,3.9-16.3,5.9c-1.4,0.5-2.1,1.5-2,2.9c0.1,0.6,0,0.8-0.7,1c-4.2,1.4-8.4,2.9-12.6,4.4
			c-2.8,1-5.5,1.9-8.3,2.9c-5.2,1.8-10.4,3.6-15.7,5.4l-0.6,0.2c-1.1,0.4-2.6,1.1-2.6,3.2c0,0.1-0.2,0.4-0.3,0.5
			c-4.8,1.6-9.6,3.2-14.4,4.8l-2.9,0.9c-0.9-1.6-1.7-2.2-3.3-1.6c-1.7,0.6-3.1,1.2-4.4,1.8c-1.4,0.7-1.9,1.9-1.4,3.3
			c0.3,0.9,0.6,1.7,0.8,2.6c0.4,1.2,0.7,2.3,1.2,3.5c0.4,1.1,0.6,1.8-0.2,2.6c-0.5,0.6-0.7,1.4-0.9,2.1l-0.1,0.2
			c-0.2,0.7-0.3,1.4-0.4,2.1c-0.2,1.2-0.5,2.4-0.9,3.5c-1.4,3.4-2,7.2-2.1,12.2c-0.1,4.2-1.2,7.8-3.4,11c-2.4,3.4-5,6.9-7.8,10.8
			c-1.3,1.8-2.6,3.5-4,5.3c-0.5,0.6-1,1.3-1.5,1.9c0,0,0,0,0-0.1l-2.8-4.4c-2.5-4-4.9-7.9-7.4-11.9l-0.3-0.5
			c-3.3-5.4-6.7-10.9-11.7-15.3c0,0,0,0,0,0c0.1-0.3,0.3-0.6,0.5-0.8c0.7-0.8,1.4-1.6,2.1-2.4c1.2-1.4,2.4-2.8,3.6-4.2
			c0.7-0.9,1.1-0.8,2.2-0.3l0.9,0.5c2.6,1.3,5.2,2.7,7.9,3.7c4.4,1.5,7.3,0.2,9.3-4.2l0.2-0.4c0.3-0.6,0.5-1.2,0.9-1.6
			c2.4-2.6,4.3-5.5,5.5-8.8c0.1-0.3,0.1-0.3,0.7-0.2c1.3,0.2,2.4,0.2,3.4,0.1c1.5-0.1,2.5-1.1,2.6-2.6c0.1-1,0-2-0.2-2.9
			c-0.7-3.1-1.4-6.2-2.3-9.6c-0.3-1.1-0.1-2.1,0.7-3.2c0.8-1.1,1.4-2.3,1.8-3.3c1.1-3.2,1.4-6.8,0.9-11.2c-0.1-0.6,0-0.8,0.5-1
			c1.4-0.6,2.4-1.8,2.9-3.4c0.7-2.4,0.3-4.7-1.3-7.2c-1.6-2.5-3.6-4.7-6.3-6.7c-5.7-4.3-12.4-7.2-20-8.6c-4.4-0.8-9.7-1.5-15-0.2
			c-7.2,1.7-13,6.2-17.1,13.3c-5.4,9.2-6.5,19.7-3,31c1.5,5,1.5,5-1.4,9.1c-2.5,3.4-5.4,6.9-9.7,8.6c-1.1,0.4-2.2,1.1-3.2,1.7
			c-0.3,0.2-0.7,0.4-1,0.6c-8.6,5.1-15.2,11-20.1,18.2c-4.6,6.7-7.7,14.4-9.6,23.7c-1.2,5.7-2.2,11.9-3.2,19.4
			c-1,7.1-1.7,14.4-2.4,20.8c-0.4,4.3-0.8,8.7-1.2,13c-0.2,1.9-0.3,3.9-0.5,5.8l-0.2,2.6c-0.5,6.1-1.1,12.1-1.6,18.2
			c-0.1,0.6,0,1,0.2,1.4c0.2,0.3,0.5,0.8,1.3,0.9c0.5,0,0.8-0.1,1.1-0.3c0.5-0.4,0.6-1,0.6-1.6l0.2-2.1c0.2-2.5,0.4-5.2,0.6-7.7
			c0.9-10,1.6-17.7,2.3-25c0.2-1.6,0.3-3.2,0.5-4.9c0.5-5.2,1-10.7,1.7-16c1.3-9.6,2.4-17,3.7-23.7c1.5-7.8,4.2-14.8,8-20.8
			c4.8-7.7,11.4-13.9,20.3-19.1c1.4-0.8,2.8-1.6,4.1-2.3c0.4-0.2,0.9-0.5,1.3-0.7c0.8,1,1.6,1.9,2.4,2.9c2,2.5,3.9,4.8,5.9,7
			c3,3.3,6.1,5.7,9.4,7.2c2.4,1,4.9,1.8,7.4,0c0.3,0.3,0.6,0.6,1,0.9c0.9,0.9,1.8,1.8,2.5,2.7c3,4.3,5.7,8.3,8.3,12.3
			c2.4,3.8,4.8,7.8,7.2,11.6c1,1.6,1.9,3.2,2.9,4.8l-3.7,4.4c-0.9-0.8-1.8-1.5-2.7-2.3c-2.3-1.9-4.4-3.7-6.4-5.8
			c-4.5-4.6-8.9-9.5-13.1-14.2c-1.5-1.6-3-3.3-4.5-4.9c-0.5-0.5-1.4-1.6-2.6-0.6c-0.4,0.3-0.6,0.7-0.6,1.1c0,0.7,0.4,1.2,0.8,1.7
			c1.6,1.8,3.2,3.6,4.8,5.4c2.1,2.4,4.2,4.8,6.4,7.2c0.9,1,1.9,2,2.8,3c0.3,0.3,0.6,0.7,1,1c-6.1,6.1-12.8,13.5-17.5,22.7
			c-7.5-5.1-14-11.2-19.3-16.6c-0.1-0.1-0.1-0.1-0.2-0.2c-0.2-0.2-0.5-0.5-0.8-0.6c-0.3-0.1-1.2-0.3-1.7,0.2
			c-0.5,0.4-0.5,1.3-0.4,1.7c0.1,0.5,0.5,0.8,0.8,1.1l0.1,0.1c1.1,1,2.1,2,3.2,3c2.6,2.5,5.3,5,8,7.3c2.2,1.9,4.7,3.7,7,5.4
			c0.8,0.6,1.6,1.1,2.4,1.7c0.7,0.5,1.3,0.7,1.9,0.6c0.7-0.2,1.2-0.9,1.5-1.4c0.2-0.4,0.4-0.8,0.6-1.1l7.6,5.6
			c-2.7,10.8-4.3,20.2-4.9,28.8c-0.4,6.5-0.7,13.1-1,19.5c-0.1,2.7-0.2,5.5-0.4,8.3c0,0.5-0.1,1.1,0.3,1.5c0.3,0.3,0.7,0.4,1.1,0.4
			c1.1,0,1.6-0.7,1.7-1.9l0-2c0-2.4,0.1-4.9,0.2-7.4c0.1-1.5,0.1-3,0.2-4.6c0.2-4.7,0.4-9.5,0.9-14.3c0.6-5.6,1.5-11.2,2.5-16.6
			c0.2-1.4,0.4-2.7,0.7-4.1c0.2-1.5,0.6-3,1-4.5c0.1-0.5,0.3-1,0.4-1.5c0.3,0.2,0.6,0.3,0.8,0.5c5.4,3.2,11.8,6.7,19,8.6
			c2.3,0.6,5,1.1,7.6-0.2c0.2-0.1,0.5-0.2,0.7-0.4c1.2-0.7,2-1,3-0.4c0.3,0.2,0.5,0.1,0.8,0.1c0.1,0,0.1,0,0.2,0
			c2.7,0,5.5-0.7,8.5-2.3c6.4-3.4,12-7.9,17.1-12.3c4.4-3.8,8.8-7.8,13.1-11.6c2.2-2,4.4-3.9,6.6-5.9c0.3-0.3,0.6-0.4,0.8-0.5
			c1.1,0,2.2,0,3.3,0l0.5,0l-4.9,12.8c-4.7,12.2-9.5,24.5-14.2,36.7c-4.7,12.2-9.4,24.3-14.2,36.5l-1.8,4.7c-0.2,0.6-0.8,2,0.7,2.7
			c0.5,0.2,0.9,0.2,1.2,0.1c0.6-0.2,0.8-0.9,1-1.4l11.6-30.1c8-20.8,16.1-41.6,24.1-62.5c0.1-0.3,0.3-0.7,0.5-0.9
			c0.8-0.6,1.6-1.2,2.4-1.7l0.1,0c0,1.8,0,3.5,0,5.3c0,4.6,0.1,9.4-0.1,14c-0.2,7.1-0.5,14.3-0.8,21.3l-0.2,5
			c-0.3,6.3-0.5,12.2-0.8,17.8c-0.2,3.7-0.5,7.5-0.7,11.2l-0.6,9.3c-0.1,2.1-0.3,4.2-0.4,6.4l-0.1,1c-0.1,1.2-0.2,2.3-0.1,3.5
			c0,0.5,0.4,0.9,0.7,1.3c0.1,0.1,0.2,0.3,0.3,0.4l0.4,0.5l0.4-0.5c0.1-0.1,0.2-0.2,0.3-0.3c0.3-0.3,0.6-0.6,0.8-1
			c0.2-0.4,0.2-0.9,0.2-1.3c0-0.1,0-0.2,0-0.3c0.1-2.3,0.3-4.7,0.4-7c0.2-4,0.5-8,0.7-12c0.2-2.5,0.3-5,0.5-7.5
			c0.3-4,0.6-8.1,0.8-12.1c0.5-10,0.8-18.1,1-25.6c0.2-7.1,0.3-14.3,0.4-21.3c0-3,0.1-6,0.2-9c0-0.3,0-0.7,0-1c0.3,0,0.5,0,0.8,0
			c0.9,0,1.7,0,2.6-0.1c1-0.1,1.4,0.2,1.8,1.3c9.9,24.9,19.9,49.8,29.8,74.6l5.8,14.6c0.9,2.2,1.8,4.5,2.7,6.7
			c0.3,0.7,0.7,1.1,1.1,1.3c0.3,0.1,0.7,0.1,1.2-0.2c0.6-0.3,0.7-1.2,0.7-2c0-0.4-0.2-0.7-0.3-1c-0.1-0.1-0.1-0.2-0.2-0.3l-1.6-3.9
			c-1.3-3.1-2.5-6.2-3.8-9.4l-12-30.1c-5.5-13.9-11.1-27.8-16.6-41.7c-1-2.5-2-5-3-7.4l-1.3-3.1c2.5-1.6,3.4-3.4,2.6-5.6
			c-0.2-0.6-0.1-0.8,0.4-1.3c1.6-1.6,1.8-3.7,0.7-5.6c-0.3-0.4-0.3-0.6,0-1c0.9-1.5,1.3-3.5,0.1-4.7c-1.2-1.2-0.9-2.3-0.6-3.7
			c0.1-0.2,0.1-0.4,0.2-0.7l0-0.1c0-0.1,0.1-0.2,0.1-0.3c0.2-1.2-0.1-2.4-0.9-3.3c-0.7-0.9-1.8-1.5-2.8-1.6c-1-0.1-1.9,0-2.9,0.1
			l-0.6,0c-1,0.1-2,0.2-3.1,0.3l-0.9,0.1v-17.5c0.1,0,0.2,0,0.2,0c3.6-0.1,4.5-1,4.5-4.7l0-7.5l20.6-6.4c1.6,2,2.5,2.3,4.9,1.5
			c3.4-1.1,6.9-2.1,10.3-3.2c8.4-2.6,17.1-5.3,25.6-7.9C-327.9,303.7-326.7,301.8-327.2,299z M-330.1,299.4l-0.2,0.1l0,0.3
			c-0.1,0.9-0.3,1.3-1,1.5c-13.3,4.1-25.1,7.7-36.2,11.2c-0.9,0.3-1.1,0.2-1.5-0.8c-2.1-6.6-4.2-13.1-5.9-18
			c-0.2-0.6-0.2-0.6,0.4-0.8c8.3-3,16.7-6,25-9.1l10.7-3.9c0.4-0.2,0.8-0.3,1.1-0.3c0.6,0,1.1,0.4,1.6,1.4c1,2,2,4.1,2.7,6.3
			c0.9,2.9,1.6,5.8,2.4,8.7C-330.6,297.3-330.3,298.4-330.1,299.4z M-399.2,372.4l1.8,0c2.3,0,4.6,0,7,0c0.2,0,0.6,0.2,0.8,0.3
			c0,1.2-0.2,1.5-0.3,1.6h0c-0.5,0.4-1.4,0.7-2.2,0.8c-1.6,0.1-3.4,0-5.6-0.2C-398.8,374.7-399.3,374.3-399.2,372.4z M-398.7,369.3
			c-0.5,0-1.3-0.1-1.4-1c-0.1-0.4,0.1-0.9,0.5-1.5c0.1-0.1,0.4-0.2,0.7-0.2c1.1,0,2.3,0,3.4,0c0.6,0,1.2,0,1.8,0l2.3,0v-0.3l0.3,0
			c0.6,0,1.2,0,1.8,0c1,0,1.3,0.5,1.4,0.9c0.2,0.8-0.1,1.3-0.9,1.7c-0.4,0.2-0.8,0.3-1.2,0.3C-392.8,369.3-395.6,369.3-398.7,369.3z
			 M-388.2,362.6c-0.3,0.4-0.9,0.5-1.6,0.6c-2.2,0-4.3,0-6.5,0l-2.4,0c-0.1-1.2-0.1-2,0.1-2.2c0.3-0.3,1.1-0.4,2.6-0.6
			c2.1-0.2,4.2-0.3,6.1-0.3c0.8,0,1.3,0.1,1.7,0.5c0.2,0.2,0.4,0.6,0.4,1C-387.8,361.9-388,362.3-388.2,362.6z M-389.5,356.8
			c-0.1,0-0.3,0-0.5,0c-0.1,0-0.2,0-0.3,0c-0.9,0-1.7,0.1-2.6,0.1c-1.9,0.1-3.9,0.2-5.8,0.4c-2.1,0.2-3.1,1.3-3.1,3.6
			c0,1.8-0.1,3.4-1,5.1c-0.8,1.6-1.8,2.7-3.3,3.7c-0.2,0.1-0.3,0.2-0.5,0.3l-0.3,0.2c-0.4,0.3-1.1,0.7-1.2,1.4
			c-0.1,0.4,0,0.8,0.3,1.2c0.3,0.4,0.6,0.7,1,0.8c0.6,0.1,1.2-0.3,1.7-0.6c0.7-0.5,1.5-1.1,2.4-1.7l0.5-0.4c0,0.3,0,0.5,0,0.7
			c-0.3,1.5-0.3,3.3,1.3,4.9c-0.2,0.2-0.4,0.3-0.6,0.5c-2.1,1.7-4.1,3.3-7,3c-2.3-0.2-4.2,0.5-6.2,2.4c-5.6,5.1-11.3,10.4-17.3,15.4
			c-4.6,3.8-9.5,7.4-14.2,10.8l-0.9,0.6c-2.4,1.7-5.1,2.8-8.3,3.3c-0.4,0.1-0.8,0-1.2,0c0.6-0.9,1.2-1.9,1.9-2.8
			c1.7-2.6,3.4-5,4.8-7.6c2.1-3.7,4-7.5,6-11.2c1-2,2-3.9,3.1-5.9c0.2-0.5,0.6-0.9,1-1.2l2.5-1.6c5.4-3.6,11-7.3,16.6-10.8
			c2.3-1.5,4.4-3.4,6.5-5.9c2-2.5,4.3-4.9,6.5-7.2c1-1,2-2.1,2.9-3.1c1.3-1.4,3.1-1.6,4.9-1.7c0.4,0,0.8-0.1,1.1-0.1
			c2.8-0.3,5.6-0.6,7.7-0.7h0c1.1-0.1,1.9-0.1,2.3,0.7C-388.6,354.1-389.1,356.5-389.5,356.8z M-489.5,386.2
			c1.2-1.4,2.5-2.7,3.8-4.1c1-1.1,2-2.1,2.9-3.2c0.4-0.4,0.5-0.5,1,0c3.5,3.1,7,6,10,8.5c0.7,0.6,1.3,0.9,1.9,0.9
			c0.6-0.1,1.2-0.6,1.7-1.3l3.5-4.5c4.2-5.3,8.5-10.9,12.7-16.4c2.3-3.1,4.3-6.2,5.9-9.4c1-1.9,1.2-4.2,1.4-6.4l0-0.2
			c0.1-1,0.2-1.9,0.2-2.9c0.2-2.5,0.3-5,1.1-7.4c0.7-2.1,1.3-4.2,1.8-6.3c0.1-0.5,0.3-0.9,0.4-1.4c0.3,0.9,0.7,1.8,1.7,2.2
			c0.5,0.2,1,0.2,1.6,0.1l-0.2,0.3c-0.6,1-1.1,1.9-1.6,2.8c-0.3,0.6-0.6,1.2-0.5,1.8c0.1,0.4,0.4,0.7,0.8,0.9
			c1.4,0.8,2.1-0.5,2.5-1.2c0.5-0.8,0.9-1.6,1.4-2.4c1-1.7,2.1-3.5,3-5.4c0.3-0.5,0.3-1,0.4-1.6c0-0.2,0-0.4,0.1-0.5l3.6-1.1
			c0.8,1.4,1.4,2.9,0.6,4.6c-0.9,1.9-1.6,3.6-2.2,5.1c-0.2,0.6-0.1,1.9,0.5,2.2c0.5,0.3,0.9,0.3,1.2,0.2c0.5-0.1,0.9-0.6,1.2-1.2
			c0.4-1,0.9-2.1,1.4-3.1l0.4-0.9c0.8,0.6,1.2,1.6,1.2,2.9c0,4.2-1.1,8.3-3.3,12.1c-1.7,2.9-3.7,5.9-6,8.9c-1.9,2.4-2.8,5.2-3.7,7.9
			l-0.2,0.5c-4.3,12.8-8.9,23-14.4,32c-1.6,2.7-3.4,5.3-5.1,7.8c-0.8,1.1-1.5,2.2-2.3,3.4c-0.1,0.2-0.2,0.3-0.3,0.4
			c-0.1,0.1-0.2,0.2-0.3,0.4c-2,2.6-4.6,3.4-8,2.4c-7-2.1-13.8-5.3-20.7-10c-2.1-1.4-4.1-2.9-6.3-4.4c-0.8-0.6-1.7-1.2-2.6-1.9
			C-495.4,393.4-492.8,389.8-489.5,386.2z M-408.7,326c0.9-0.4,1.9-0.7,2.9-1c0.3-0.1,0.5-0.2,0.8-0.3l0,0.9c0,1.1,0,2,0,3
			c0,3,1,4,4,4.1c0.2,0,0.4,0,0.7,0l0,17.7c-0.2,0-0.4,0-0.5,0c-0.8,0.1-1.7,0.1-2.4,0.5c-1.6,0.8-3.4,1.6-4.6,2.9
			c-2.5,2.6-4.9,5.3-7.2,7.9c-1.1,1.2-2.2,2.4-3.2,3.7l-0.3,0.4c-0.5,0.6-1,1.2-1.6,1.6c-4.9,3.2-9.8,6.3-14.7,9.5l-3.6,2.3
			c0.5-1.3,0.9-2.5,1.4-3.8c1.5-4.3,3-8.3,4.7-12.3c0.6-1.5,1.7-2.8,2.8-4.1c0.5-0.6,1.1-1.3,1.6-2c3.8-5.3,6-10.5,6.7-16.1
			c0.4-3.3,0.4-6.7-2.9-9.1c0-0.1-0.1-0.3-0.1-0.4l0-0.2c-0.2-1.1-0.4-2.2-0.6-3.4l-0.2-0.9l10.9-3.4c0.4,1.3,1,2.2,1.8,2.6
			C-411.5,326.6-410.2,326.6-408.7,326z M-401.8,329.2c-0.1-1.5-0.1-3.1,0-5.1c0-0.1,0.2-0.3,0.2-0.4c1.7-0.6,3.5-1.2,5.3-1.8l1-0.3
			l0,1.3c0,2.2,0,4.3,0,6.3c0,0.1-0.3,0.4-0.4,0.4c-1.9,0.1-3.8,0.1-5.7,0C-401.5,329.5-401.7,329.3-401.8,329.2z M-410,323.1
			c-0.5,0.2-0.8,0.2-0.9,0.1c-0.2-0.1-0.3-0.3-0.4-0.8c-1.3-4-2.6-7.9-3.9-11.6c-0.1-0.4-0.2-0.7-0.1-0.8c0.1-0.1,0.3-0.3,0.7-0.4
			c9.7-3.3,19.5-6.6,29.3-10l8.2-2.8l3.1,9.3c0.1,0.4,0.2,0.8,0.4,1.1c0.3,0.9,0.5,1.8,0.9,2.6c0.2,0.5,0.2,0.8,0.2,0.9
			c-0.1,0.2-0.6,0.4-1,0.5c-7.8,2.4-15.7,5-23.4,7.5l-3,1C-403.3,320.9-406.6,322-410,323.1z M-433.1,326.2l-2.1-6.9l17.5-5.8
			l2.5,7.1L-433.1,326.2z M-438.4,331.4l-4-12.5l3.5-1.5l3.9,12.4L-438.4,331.4z M-455.2,288.9l-0.4-0.1c-0.9-0.3-1.9-0.7-2.8-1.1
			c-1.6-0.6-3.2-1.2-4.8-1.8c-1.4-0.4-2.4-0.4-3.2,0.1c-0.8,0.5-1.3,1.5-1.5,3l-0.1,0.7c-0.4,3-0.8,5.8-2.8,8
			c-0.8,0.9-1.8,1.8-2.7,2.7c-0.5,0.4-1,0.9-1.4,1.3c-0.2,0.2-0.3,0.4-0.5,0.6c-0.1,0.2-0.4,0.5-0.5,0.5c-0.8,0-1.7-0.2-2.4-0.5
			c-0.1-0.1-0.1-0.5-0.2-0.6c-0.5-2.4-2-4.4-3.9-5.3c-1.8-0.9-3.8-0.8-5.7,0.1c-3.4,1.7-4.5,5-4.9,7.3c-0.3,1.3-0.2,2.6-0.2,3.9
			c0,0.6,0,1.2,0,1.8l0,0.1c0,0.1,0,0.4,0,0.4c-2.3,2.5-4.8,3.9-7.8,4.3c-0.2-1-0.5-2-0.7-3c-0.6-2.5-1.2-4.8-1.6-7.1
			c-1.9-12.9,1.9-23.2,11.3-30.7c3.6-2.9,7.9-4.3,13.1-4.3c1,0,2,0.1,3.1,0.2c6.6,0.7,12.2,2.1,17.1,4.5c5.2,2.6,8.9,5.4,11.6,8.9
			c1,1.4,2,2.9,1.8,4.8c-0.1,1.8-1,2.7-2.8,2.8C-450.7,290.6-452.9,289.8-455.2,288.9z M-501.7,318.1c0.1-0.3,0.4-0.5,0.5-0.5
			c3.4-0.4,6.4-1.8,9-4.3c0.1,0.2,0.3,0.4,0.4,0.6c0.6,0.8,1.2,1.6,1.9,2.2c1,0.8,2.3,1.2,3.5,1.5c0.2,0.1,0.5,0,0.8-0.2
			c0.3-0.2,0.8-0.6,0.9-1.1c0.1-0.5-0.2-1.1-0.5-1.4c-0.2-0.3-0.5-0.5-0.7-0.5c-3.1-0.3-3.7-2.8-4.3-5.2c-0.7-2.5-0.2-5.2,1.5-8.1
			c1-1.7,2.3-2.4,4.2-2.1c1.6,0.2,2.5,1.3,2.7,3.1c0.3,2.2,1.4,2.9,3.3,3.4c2.7,0.6,4.6,0.5,6.1-2.1c0.4-0.7,1.1-1.2,1.8-1.8
			c0.2-0.2,0.5-0.4,0.7-0.5c2.7-2.3,4.3-5.5,4.8-9.9l0-0.4c0-0.2,0.1-0.5,0.1-0.7c0.1-0.5,0.2-1.2,0.3-1.3c0.2,0,0.9,0.2,1.3,0.4
			c1.5,0.5,3,1.1,4.5,1.7c1.7,0.7,3.5,1.3,5.3,2c0.7,0.2,1.4,0.4,2.1,0.5c0.6,0.1,1.1,0.2,1.6,0.3c0.2,0.1,0.5,0.4,0.6,0.5
			c0.6,3.3,0.4,6.6-0.6,9.9c-0.2,0.8-0.5,1.4-0.9,1.8c-1.8,2-2.3,4.3-1.6,7.5c0.7,2.9,1.5,5.9,2.2,8.8c0.2,1,0.2,1.2,0.2,1.3
			c0,0.1-0.3,0.1-1.3,0.1c-0.5,0-1-0.1-1.5-0.3c-0.3-0.1-0.5-0.1-0.8-0.2c-1.3-0.3-2.2,0.2-2.6,1.4c-1.4,3.7-3,6.5-5.3,8.8
			c-0.7,0.8-1.2,1.8-1.6,2.7c-1.4,3.2-2.8,3.8-5.9,2.6c-2-0.8-4-1.8-5.9-2.8c-0.9-0.4-1.7-0.9-2.6-1.3c-0.2-0.1-0.4-0.2-0.5-0.3
			c-0.3-0.2-0.7-0.4-1-0.5c-1.1-0.4-2-0.2-2.7,0.6c-0.6,0.7-1.2,1.3-1.9,1.9c-2.5,2.6-5.2,5.3-6.8,8.8c-0.5,1.1-2.1,0.7-2.8,0.5
			c-2.9-0.9-5.2-2.6-7.1-4.3c-4-3.5-7.3-7.3-10-11.5c-0.4-0.6-0.4-0.8,0.2-1.3C-506.5,325.6-503.8,322-501.7,318.1z"/>
		<path class="st0" d="M-463.7,303.2c0.4,0,0.7,0,1.1-0.1c2.6-0.6,5.5-0.8,8,1.5c0.2,0.2,0.6,0.4,0.9,0.4c0.1,0,0.1,0,0.2,0
			c0,0,0.5-0.1,0.7-0.6v-0.1c0-0.1,0-0.1,0-0.2c0-0.2-0.1-0.6-0.4-0.9c-2-2.1-4.6-2.9-7.8-2.5c-0.8,0.1-1.6,0.4-2.3,0.6
			c-0.4,0.1-0.7,0.2-1.1,0.2l-0.6,0.1l0.4,1.6H-463.7z"/>
		<path class="st0" d="M-458.7,306.3c-0.6-0.2-1.3-0.3-1.8-0.2c-0.9,0.1-1.2,0.5-1.3,0.8s-0.1,0.8,0.7,1.3c0.4,0.3,1,0.6,1.7,0.8
			c0.5,0.1,1.1,0.2,1.5,0.2c0.8,0,1.4-0.2,1.5-0.8C-456.1,307.5-457.3,306.7-458.7,306.3z"/>
	</g>
</g>
</svg>
