<svg version="1.2" xmlns="http://www.w3.org/2000/svg" viewBox="0 0 382 134" width="382" height="134"><style></style><path fill-rule="evenodd" d="m63.3 108h-35.4c-2.3 0-4.2 1.9-4.2 4.2 0 2.3 1.9 4.1 4.2 4.1h35.4c2.3 0 4.2-1.8 4.2-4.1 0-2.3-1.9-4.2-4.2-4.2z"/><path fill-rule="evenodd" d="m34.5 94.4h22.2c2.3 0 4.2 1.9 4.2 4.2 0 2.3-1.9 4.1-4.2 4.1h-22.2c-2.3 0-4.2-1.8-4.2-4.1 0-2.3 1.9-4.2 4.2-4.2z"/><path fill-rule="evenodd" d="m57.6 77.1c-0.4-0.4-1-0.4-1.4-0.1l-5.5 3.7c-0.6 0.4-0.6 1.3 0 1.8 19.6 16.4 20.6 33.4 20.4 38.7-0.1 0.7 0.5 1.3 1.2 1.3h6.3c0.6 0 1.1-0.5 1.2-1.2 0.2-7.2-1.5-26.2-22.2-44.2z"/><path fill-rule="evenodd" d="m32.5 70.7c0.4 0.4 1 0.4 1.4 0l4.9-4.4c0.5-0.4 0.5-1.2 0-1.6-18.8-16.2-19.8-32.8-19.6-38 0.1-0.6-0.5-1.2-1.1-1.2h-6.4c-0.6 0-1.1 0.5-1.1 1.1-0.3 7.2 1.4 26.1 21.9 44.1z"/><path fill-rule="evenodd" d="m45.2 79c0 0 3.3-2.4 6.1-4.1q2.3-1.4 4.4-3.2c21.6-18.3 23.3-37.8 23-45.1 0-0.6-0.5-1.1-1.2-1.1h-6.3c-0.7 0-1.2 0.6-1.2 1.2 0.3 5.5-0.8 23.2-21.9 40q0 0 0 0-0.1 0-0.2 0.1-0.6 0.5-1.3 1 0 0 0-0.1c-2.6 1.8-7.4 4.9-7.4 4.9l-0.3 0.2q-0.6 0.6-1.4 1.2c-24.3 18.9-26.1 39.7-25.9 47.3 0 0.7 0.5 1.2 1.2 1.2h6.3c0.7 0 1.2-0.6 1.2-1.3-0.3-5.7 0.9-24.7 24.9-42.1z"/><path  d="m37.8 30c-4.4-3.7-15-6.7-14.7-2.4 0 7.7 1.5 12.8 4.6 16.1 3.1 3.4 7.8 4.9 14 5.2 0.7 0 1.2-0.2 1.6-0.7 0.1-0.1-0.6-1.7-2-3.8-3.5-5.1-8.6-9.2-8.6-9.2 6.3 0 10.7 8.5 11.2 9.5 0.3-6.5-2.1-11.4-6.1-14.7z"/><path  d="m65.3 25.7c-2.4-0.5-5.8-0.1-9.1 1.3-4.5 1.9-8.5 5.4-9.6 10.5-0.4 2-0.3 4.9 0.5 7.3 0.1-0.2 4.7-9.6 11.2-9.6 0 0-8.6 7-11.2 13.9-2.1 7-2.2 15.2-2.3 20.7l3.2-2.2c-0.1-5.7 0.4-13 2.2-18.3 6.4 0.4 10.2-3.5 12.7-7.2 2.5-3.9 3.3-9.3 3.3-15.2 0.1-0.6-0.3-1.1-0.9-1.2z"/><path  d="m101.2 65.9v-38.6h0.1l17.7 22.1 17.3-22.1h0.1v38.6h-7.2v-10.7q0-1.8 0-4.1 0.1-2.3 0.4-5.2-1.3 2.1-2.5 3.7-1.1 1.6-2.2 2.9l-6.1 8.2-6.3-8.2q-1-1.3-2.3-3-1.3-1.8-2.5-3.8 0.3 3.1 0.4 5.3 0.1 2.3 0.1 4.2v10.7h-7z"/><path  d="m140.8 65.9l16.5-38.7h0.1l16.4 38.7h-7.5l-2.8-6.7h-12.6l-2.8 6.7h-7.3zm12.5-12.6h7.8l-1.7-3.8q-0.6-1.6-1.2-3-0.5-1.4-1-3.3-0.5 1.8-1 3.3-0.6 1.4-1.2 3c0 0-1.7 3.8-1.7 3.8z"/><path  d="m207.6 67.1l-22.3-22.3v21.1h-7v-38.6h0.1l22.3 22.3v-21h6.9v38.5c0 0 0 0 0 0z"/><path  d="m215.6 65.9v-37.3h12.7q4.5 0 8.1 1.4 3.7 1.5 6.4 4 2.6 2.6 4.1 6 1.4 3.4 1.4 7.2 0 3.9-1.4 7.3-1.5 3.4-4.1 5.9-2.7 2.6-6.4 4-3.6 1.5-8.1 1.5zm7.2-6.8h4.8q3.2 0 5.6-0.9 2.4-0.9 4-2.6 1.6-1.6 2.5-3.7 0.8-2.2 0.8-4.7 0-2.5-0.8-4.6-0.9-2.2-2.5-3.9-1.6-1.6-4-2.5-2.4-0.9-5.6-0.9h-4.8v23.9z"/><path  d="m254.7 65.9v-37.3h11.4q4.1 0 6.9 1.6 2.9 1.6 4.4 4.3 1.6 2.7 1.6 5.8 0 1.9-0.6 3.7-0.6 1.7-1.7 3.1-1.1 1.4-2.6 2.4l9.9 16.4h-8.2l-8.3-14.2h-5.6v14.2h-7.2zm7.2-20.4h3.8q2.2 0 3.5-0.8 1.3-0.8 1.9-2 0.6-1.2 0.7-2.5-0.1-1.5-0.8-2.7-0.8-1.1-2.1-1.8-1.4-0.7-3.2-0.7h-3.8z"/><path  d="m284.2 65.9l16.5-38.7h0.1l16.4 38.7h-7.5l-2.8-6.7h-12.6l-2.8 6.7c0 0-7.3 0-7.3 0zm12.6-12.6h7.7l-1.7-3.8q-0.6-1.6-1.2-3-0.5-1.4-1-3.3-0.5 1.8-1 3.3-0.6 1.4-1.2 3l-1.7 3.8z"/><path  d="m321.7 65.9v-37.3h7.5v37.3zm20.6 0l-13.5-23 10.3-14.3h8.5l-10.3 14.1 13.8 23.2z"/><path  d="m354.9 65.9v-37.3h19.9v6.4h-12.7v5.8h9.8v6.2h-9.8v12.2h12.7v6.7c0 0-19.9 0-19.9 0z"/><path  d="m101.2 120.1v-37.3h11.7q3.7 0 6 1.5 2.2 1.4 3.1 3.4 1 2 1 3.8 0 1.6-0.6 3.1-0.7 1.4-1.8 2.5 1.8 1.1 3 2.6 1.3 1.6 2 3.5 0.7 1.9 0.7 4.1 0 2.4-0.9 4.7-0.8 2.3-2.6 4.1-1.8 1.9-4.4 2.9-2.5 1.1-6 1.1h-11.2zm7.2-24.6h3.3q1.3 0 2.3-0.4 0.9-0.4 1.5-1.2 0.5-0.8 0.5-2 0-1.1-0.5-2-0.6-0.8-1.5-1.2-0.9-0.4-2.2-0.4h-3.4v7.2zm0 17.9h3.3q2.4 0 4-1 1.5-0.9 2.2-2.4 0.6-1.5 0.6-2.9c0-1-0.2-1.9-0.6-2.9q-0.7-1.5-2.2-2.5-1.5-1-4-1h-3.3z"/><path  d="m132.6 120.1v-37.3h7.7v37.3z"/><path  d="m166.5 120.9q-4.1 0-7.7-1.5-3.6-1.6-6.3-4.2-2.7-2.7-4.2-6.2-1.6-3.5-1.6-7.5 0-4 1.6-7.6 1.5-3.5 4.2-6.1 2.7-2.7 6.3-4.2 3.6-1.5 7.7-1.5 4.1 0 7.6 1.5 3.6 1.5 6.3 4.2 2.7 2.6 4.3 6.1 1.5 3.6 1.5 7.6 0 4-1.5 7.5-1.6 3.5-4.3 6.2-2.7 2.6-6.3 4.2-3.5 1.5-7.6 1.5zm0-7.2q2.5 0 4.6-1 2.2-0.9 3.8-2.6 1.7-1.7 2.6-3.9 0.9-2.2 0.9-4.7 0-2.6-0.9-4.8-0.9-2.2-2.6-3.9-1.6-1.6-3.8-2.6-2.1-0.9-4.6-0.9-2.6 0-4.7 0.9-2.2 1-3.8 2.6-1.6 1.7-2.6 3.9-0.9 2.2-0.9 4.8 0 2.5 0.9 4.7 1 2.2 2.6 3.9 1.6 1.7 3.8 2.6 2.1 1 4.7 1z"/></svg>